<?xml version="1.0" encoding="utf-8"?>
<!-- Generator: Adobe Illustrator 22.0.1, SVG Export Plug-In . SVG Version: 6.00 Build 0)  -->
<svg version="1.1" id="Layer_1" xmlns="http://www.w3.org/2000/svg" xmlns:xlink="http://www.w3.org/1999/xlink" x="0px" y="0px"
	 viewBox="0 0 103 120" style="enable-background:new 0 0 103 120;" xml:space="preserve">
<style type="text/css">
	.st0{fill:#F4D36C;}
	.st1{fill:#DD8D8E;}
</style>
<path d="M7.7,114.3l27.6-15.2l12.1,5.9c0,0,6.2-8.1,7.3-12.9l17.5-7.4l0.4-4.8l13.3-4.7c0,0,14.1,0.4,13.5-13.7c0,0-1.6-9.5-9.7-7.6
	l6.8-3.5c0,0-3.2-25.2,1.3-46.3c0,0-8.9,3.7-20.4,4.3l-0.5,1.6c0,0-6.4,5.6-14.4,2.6L49.3,9.5l0.5,6L47,10.6l-6.1,4.7l-8.6,1.8
	l-0.5-5.3L6,16.7L4.3,62.7L9,60.1L7.7,114.3z"/>
<g>
	<path class="st0" d="M96.7,58.7c-0.6-1.3-1.6-2-3.1-2.1c-1.3-0.1-2.6,0.2-3.9,0.9c-1.7,1-3,2.4-4,4.2c-1.2,2.3-1.4,4.3-0.6,6.1
		c0.6,1.3,1.6,2,3,2.2c1.2,0.1,2.5-0.3,3.8-1.1c1.7-1,3-2.4,3.9-4.1C97.2,62.5,97.5,60.5,96.7,58.7z"/>
	<path class="st0" d="M92.5,29c0.1-4.3,0.6-10.3,1.5-18.2l-14.3,3.4l4.5,36.5l9-3.4C92.6,40.9,92.3,34.8,92.5,29z"/>
</g>
<polygon class="st1" points="76.8,30.7 70.2,32.7 70.2,29.8 76.8,27.9 76.7,21.8 70.4,24.1 70.4,21.9 76.4,19.6 75.8,13.6 
	64.6,17.4 63.8,41.7 77,37.3 "/>
<path class="st1" d="M82.4,69.8l-0.3-8.7L74,63.8l0.1-3.8l8-2.5l-0.1-8l0-0.3l-7.5,2.9l0.1-1.8l7.1-3.4l-0.1-0.8l-0.7-7.6l-13.6,5.1
	l-0.6,17.7L65,54.8l-5.9,3.7l-0.7-3.1l6.7-4l-3-9.3l-0.6,0.4c1.5-8,1.6-25.9,1.6-25.9c-1.4,0.1-9.6-2-9.6-2c0.3,1.3-0.1,10-0.1,10
	c-0.9-3-4.3-7.6-4.3-7.6l-6.8,6.3L51.8,36c0.3,0.3-1.3,6.1-1.3,6.1l7.3,2.7l-9.2,5.9l0,0.2c-2.4-0.6-6.3-1.8-8.1-2.4
	c4.2-1.8,8.5-3.5,9.7-3.7c0.2,0,0.3,0,0.4,0c0.6,0.6-2.1-8.3-1.6-9.1l-7.5,2.6c0,0,0.7-17.3-0.4-18.4l-10.8,3.1l0.1,3.3l-0.7-8.6
	l-17.9,3.4L11,58.5l6.5-1.5l-5.6,2.2l0.7,44.9c0,0,19-11.3,22.1-12.1c0.2,0,0.4-0.1,0.4,0c0.7,1-2.3-12.5-1.8-13.7l-8.7,3.9
	c0,0,1-26.1-0.3-27.9l-2.7,1l-0.1-11.7l8.1-2.4l-0.3-10.2l-7.7,1.4l0.1-3.2l8.7-1.5l0.7,24.8c0,0,4-1.8,8.4-3.7
	c0.2,3.5-0.3,14.5-0.3,14.5c-1-4.6-4.8-11.7-4.8-11.7l-8,9.8l10.8,19.6c0.4,0.5-1.6,9.3-1.6,9.3l11.5,5.6c2.1-3.8,3-25.8,3.3-37.5
	l6.2,27.6l8-5.5l-2.9-11.6l5-4l-0.3,10.6L82.4,69.8z"/>
</svg>
