<svg xmlns="http://www.w3.org/2000/svg" viewBox="0 0 1440 1443"><defs><style>.cls-1{fill:#231f20;}.cls-2{fill:#a084bc;}.cls-3{fill:#67a8c1;}.cls-4{fill:#eeb6ae;}</style></defs><title>Artboard 1</title><g id="Layer_2" data-name="Layer 2"><ellipse class="cls-1" cx="602.23" cy="379.59" rx="75.63" ry="85.5"/><ellipse class="cls-1" cx="939.14" cy="379.59" rx="75.63" ry="85.5"/><path class="cls-1" d="M1303.71,697.69c14.74,19,21.45,48.24,9.44,70.27a3.23,3.23,0,0,1-1.13,1.23,67.21,67.21,0,0,0-3.88-9.72c4.81-20.36,1.19-41-12.05-58s-32.87-26.17-52.89-32.63a56.11,56.11,0,0,0,4.8-4.07A89.51,89.51,0,0,1,1303.71,697.69Z"/><path class="cls-1" d="M1313.46,774.67c7.64,35.91-10.26,72.85-31.53,100.76-21.88,28.72-49.06,53.52-78.72,74a391.14,391.14,0,0,1-94,47.47,10.62,10.62,0,0,0,1.17-4.22,2.24,2.24,0,0,0-2.61-2.09l-.45-1.65a384.84,384.84,0,0,0,102.91-54.41c28.35-21.13,55.4-47,74.53-76.94s33.46-70.82,13.46-104c-1.89-3.14,2.88-5.83,4.86-2.85a76.33,76.33,0,0,1,5,8.68q-.67,2.88-1.57,5.73c-1,3.28,3,5.56,5.45,4C1312.59,771,1313.06,772.82,1313.46,774.67Z"/><path class="cls-1" d="M1312,769.19c-2.45,1.57-6.49-.71-5.45-4q.9-2.85,1.57-5.73A67.21,67.21,0,0,1,1312,769.19Z"/><path class="cls-2" d="M1296.09,701.44c13.24,17,16.86,37.67,12.05,58a76.33,76.33,0,0,0-5-8.68c-2-3-6.75-.29-4.86,2.85,20,33.15,5.73,74-13.46,104s-46.18,55.81-74.53,76.94A384.84,384.84,0,0,1,1107.37,989a403.68,403.68,0,0,1-94.33,20.77c-71.44,6.92-143.47-6.09-208.67-35.83C738.76,944,680.68,898.5,634.69,843.06c-23.13-27.88-41.64-58.38-59.81-89.6-17.4-29.86-36-61.08-64-82.22l-1.42-1c8.28,2.87,16.67,5.48,25,8.06,16.77,5.22,33.66,10,50.64,14.44q12.48,3.27,25,6.28c8,1.92,16.31,4.16,24.61,3.56a30.39,30.39,0,0,0,14.17-4.39c.16,3.34,1.14,6.36,3.48,8.42a1.08,1.08,0,0,0-.34,1.15c-6.53,7.62-13.17,15.16-19.38,23.06a3.17,3.17,0,0,0,0,4.31,11.55,11.55,0,0,1,1.4,2.09.64.64,0,0,0,0,.49c.26.62.52,1.23.8,1.83a12.05,12.05,0,0,1,.07,3.26,2.15,2.15,0,0,0,2.67,2.13c4.27,7.49,9.88,14.14,15.85,20.42h-.26c-7.69.12-17.57,1.52-22.22,8.4a1.68,1.68,0,0,0,1.88,2.44c6.83-2,12.45-5.49,19.91-4.62a37.51,37.51,0,0,1,5.55,1.05,30.11,30.11,0,0,1,13.59,7.59,3.28,3.28,0,0,0,3.25.86,35.71,35.71,0,0,0,12.75-8.38,189.13,189.13,0,0,1-7.15,17.7,3.74,3.74,0,0,0,2.56,5.24c1.05,4.32,4.49,7.43,8,10.54,4.24,3.75,8.83,7.19,14.12,9.27a41.5,41.5,0,0,0-8.35,10.74c-.55,1,.91,2.32,1.71,1.31,14.29-18.32,43.39-23.54,62.36-9.19-.06,2.25-.09,4.49-.11,6.73-.06.57-.13,1.13-.2,1.67q-1.5,11.42-2.56,22.87c-.23,2.57,1.94,3.72,4,3.43,3.57,3.32,8,3.64,12.79,4.64q9.43,2,18.86,3.93c5.93,1.23,11.89,2.38,17.85,3.56,2.31.45,4.92,1.25,7.55,1.76A62.31,62.31,0,0,0,803.94,894a1.26,1.26,0,0,0,2.3,1c5.49-10.09,12.88-20,22.26-26.73.37-.27.74-.53,1.11-.77,8.74-6,18.15-9.27,27.94-13,.58,6.67,1,13.34,1.22,20-1,2-.8,4.55,1.58,5.72,13.81,6.83,29.71,10.51,44.86,12.9A204.34,204.34,0,0,0,952,895.22a193,193,0,0,0,45.94-8.69,33,33,0,0,0,4.5-1.77c2.66,1.09,6.41-.24,6.41-4,0-3.58-.09-7.12-.31-10.67,3.8,1.35,7.71,2.42,11.26,4.5a40.45,40.45,0,0,1,12.62,11.81c6.35,9.28,10.49,22.14,8.14,33.39-.17.83,1,1.43,1.43.6,6.59-12.7,5.93-26.35-1.61-38.65a50.14,50.14,0,0,0-5-6.77,50.62,50.62,0,0,1,6.71-1.17,33.39,33.39,0,0,1,12.19,1.71,35.35,35.35,0,0,1,4.13,1.68,41.8,41.8,0,0,1,6.27,3.76c3.1,2.23,5,6.12,8.21,7.89a1.19,1.19,0,0,0,1.77-1c.31-3.84-3.58-8.12-6.06-10.81l-.4-.42c15.66.18,31.5-3.76,46.1-9a2.86,2.86,0,0,0,2-2.27c2.26,1.66,6.51.73,6.08-2.77-.77-6.4,0-13.06-.15-19.49-.09-4.8-.15-9.59-.23-14.39,2.35,6.34,4.28,12.92,6.6,19.24a3.47,3.47,0,0,0,.66,1.15,1.47,1.47,0,0,0-1,.64,9.3,9.3,0,0,0-3.54,1.66,2.42,2.42,0,0,0,0,3.39c3.41,3.25,9.37,2.58,13.78,3a109.51,109.51,0,0,1,17.08,2.75c10.86,2.7,21.11,6.87,28.21,15.95,1,1.31,2.92-.36,2.21-1.71-5.5-10.47-15.07-17.24-26.27-20.86-1.34-.43-2.71-.82-4.09-1.16a89,89,0,0,0,19.41-5.61,102.29,102.29,0,0,0,20.24-11c4.93-3.45,12.34-8.07,14.9-14a4.29,4.29,0,0,0,2.73-2.56c1.64-4.93,1.68-10.68,1.16-16.24a40.47,40.47,0,0,1,2.83-5.3,4.26,4.26,0,0,0,1.38-1.39c.67-1,1.36-2,2.07-3a20.07,20.07,0,0,1,10.2-5.67c10-2.28,20.32,2.92,26.06,11.05.69,1,2.52.43,2.08-.87a26.87,26.87,0,0,0-27.39-17.82,94.44,94.44,0,0,1,17.16-14,122.36,122.36,0,0,1,19.3-9.72c6.12-2.52,12.65-4.23,18.51-7.3a1.37,1.37,0,0,0-.32-2.48,39.67,39.67,0,0,0-17.72.81,3.86,3.86,0,0,0,.53-2.12c-.22-11.91-8.49-24.13-17.49-31.35a58,58,0,0,0-12.22-7.44,2.25,2.25,0,0,0,.14-.44h0c9.07-9.3,7-25.09-4.06-32.12a59,59,0,0,0,8.19-5.24C1263.22,675.27,1282.88,684.47,1296.09,701.44Z"/><path class="cls-1" d="M1280.85,203.35c32.85,42.94,29.66,100.76,8.48,148.11-5.67,12.64-13.13,24.44-18.46,37.23-5.69,13.65-6.72,27.65-7.31,42.25-.85,20.94-4.33,49.12-26.75,57.62a20.59,20.59,0,0,0-4.4-1.71,1.7,1.7,0,0,1,.57-.63c25.25-17.1,18.65-51.18,21.73-77.07,3.43-28.82,22.67-52.41,31.63-79.52,15.16-45.87,10.75-99.39-26.67-133.4-16.11-14.64-36.76-22.27-58.43-22.59s-42.83,5.61-63.28,12.17c-40.64,13-84.14,31.78-127.45,20.32-23.76-6.29-44.42-21.49-68.68-26.12-16.38-3.12-36.91-.86-47.56,12.86a7.4,7.4,0,0,0-1.91-3.91,2.45,2.45,0,0,0-3-.38c-2.14,1.37-3.19,3.65-3.8,6.17-.08-.15-.17-.29-.25-.43a3.33,3.33,0,0,0-.45-.57c9.54-21,34.05-28.27,55.68-25.52,29.26,3.72,53.22,24.27,82.3,29.06,22.7,3.75,45.83-1.22,67.57-7.62,22.88-6.74,45.15-15.54,68.32-21.33,21.91-5.47,45-8.08,67.17-2.45S1267.07,185.33,1280.85,203.35Z"/><path class="cls-3" d="M1259.67,196.23c37.42,34,41.83,87.53,26.67,133.4-9,27.11-28.2,50.7-31.63,79.52-3.08,25.89,3.52,60-21.73,77.07a1.7,1.7,0,0,0-.57.63c-.39-.11-.79-.2-1.18-.28a1.37,1.37,0,0,0-1.32,2.27c9.54,10.1,16.88,24,10.71,38-4.29,9.74-13.81,18.85-14.37,29.24-14.32-6.17-30.44-8.69-45.63-8.21-34.67,1.12-66.41,18.49-96.11,34.76-18.55,10.14-37.18,19.9-56.75,27.95-10.11,4.16-20.37,7.86-30.75,11.28-8.79,2.9-18.09,5-26.73,8.38-17.56-8.77-33-21.79-48.63-33.38-35.19-26.05-72.29-50.58-114.23-64.25C768.93,520,725.24,517.49,687,532.33c-38.77,15-63.24,47.41-90.36,77.14C581.57,626,565.26,641.28,544.88,651c-17.54,8.34-37.4,11.89-56,6.57a62,62,0,0,1-9.43-3.54c-1.83-.85-3.39,1.69-1.6,2.73a59.07,59.07,0,0,0,7.17,3.57.7.7,0,0,0,.43.47c1.79.81,3.61,1.61,5.42,2.37,30.21,19.2,50.65,50,68.54,80.29,18.72,31.72,36.34,63.61,59,92.79,45.07,58.08,103.16,106.47,169.14,139,65.82,32.48,139.11,48.64,212.53,43.81a416.08,416.08,0,0,0,103.37-20.16c-.13.34-.27.67-.41,1s-.43,1-.65,1.46a2.43,2.43,0,0,0-3.41,1.44c-8.32,34.91-27.68,64.4-55.21,87.29a145.62,145.62,0,0,1-45.16,25.65c-21.26,7.37-43.73,8.9-66.06,9.25-13.21.2-26.43-.07-39.62.31-6.7.19-13.44.28-20.12.82-2.77.23-6.47.19-9.71.94-9.64-4.35-21-2.94-30.3,1.89-.82.42-.24,1.88.64,1.51,12.13-5,25.32-.11,32.87,9.3a67.81,67.81,0,0,1,3,7.39,59,59,0,0,1,3,13.32l0,.27a6.76,6.76,0,0,0-.05.76l-2.11-.43c-16.79-3.34-34.66-4.61-49.17-14.61-1.78-1.23-3.79,1.49-2.29,3,9.7,9.53,22.37,13.24,35.33,16.1,7,1.53,13.75,2.9,20.26,4.93a4.41,4.41,0,0,0,2.33.77,62.81,62.81,0,0,1,16.17,8c22.68,16,28.32,44.94,24.07,71-.6,3-1.22,6.06-1.91,9.12-3,12.12-7.62,23.74-12.5,35.24-7,11.78-17.14,20.78-33,23.64-17.55,3.18-33.64-9.06-51.36-6.63s-33.2,14.78-48.5,23q-14.05,7.51-28.45,14.34c-5.09,2.4-10.19,4.78-15.26,7.22-3.72,1.81-7.47,3.36-10.7,5.82l-.59-.7c10.05-8.54,13.71-22.52,15.59-35.45,2.81-19.32,1.17-39.21-3.65-58.09-2.29-8.91-5-18.91-9.81-26.93,17,4.25,34.74,4,50.7-4.94a.58.58,0,0,0-.45-1c-47.39,14.74-89.73-17.38-118.55-51.9-15-18-28.19-37.39-43.94-54.71s-33.68-31.12-55.23-40.38c-80.21-34.4-178.73-9.15-250.53-66-18.12-14.34-31.5-33.12-36.79-55.82-4.46-19.18-2.78-38.14.14-57.07a62.24,62.24,0,0,0,3.61-21.79v0c.42-2.56.83-5.11,1.21-7.67a4.54,4.54,0,0,0-2.55-5.07,63.75,63.75,0,0,0-2.61-9.33c-9.52-26.32-32.33-44.86-54.15-60.91-22.95-16.89-47.9-33-62.09-58.52-13.94-25.12-16.63-55.38-12.71-83.45,2.47-17.66,7.53-34.93,13.62-51.67,5.75-15.83,11.82-31.63,18-47.27,18.46,2.68,38.66-8.12,50.35-21.47,16.2-18.48,20.54-44.11,24.13-67.51.13-.85-1.11-1.23-1.31-.37C233.13,495.2,225.8,517,211,533.38a64.37,64.37,0,0,1-23.37,16.68,45.42,45.42,0,0,1-21.54,3.06,4.23,4.23,0,0,0-1.4-.66c-4.54-1.25-9.41-2.23-13.28-5.08a32.69,32.69,0,0,1-9.38-11.94c-5.17-10.37-5.59-22.52-3.94-33.8,3.91-26.72,19.84-49.75,39.2-67.84,19.75-18.46,43.09-33.34,66.27-47.1A625.13,625.13,0,0,1,318,349l2.38-1C295.22,365.13,274,386.77,262,415.22c-1,2.42,2.78,3.73,4.1,1.72A203.36,203.36,0,0,1,321.9,360c21.1-14.41,44-25.55,67.65-34.92q3-1.2,6-2.34c57.27-21.86,117.06-36.86,168.05-72.34a343.18,343.18,0,0,0,62.23-56.19C642.66,175,658.25,154.56,676,136.15c16.72-17.29,35.81-33.13,58.68-41.4,24.13-8.72,50.51-7.87,74.37,1.35a101.63,101.63,0,0,1,58.54,58.72c9.25,24.62,9.58,50.72,2.15,75.49a196.43,196.43,0,0,1-16.53,36.19c-.66,1.14,1,2.46,1.86,1.44a141.39,141.39,0,0,0,10.06-12.67,101.77,101.77,0,0,0,20.76-30.38,116.38,116.38,0,0,0,6.33-19.06c.9-3.72,2.75-8.83,2-13,10.65-13.72,31.18-16,47.56-12.86,24.26,4.63,44.92,19.83,68.68,26.12,43.31,11.46,86.81-7.31,127.45-20.32,20.45-6.56,41.62-12.5,63.28-12.17S1243.56,181.59,1259.67,196.23Zm-51.22,291.65c2.58-1.37.78-5.35-2-4.65-14.56,3.76-29.51,3.68-43.2-3.3-11.54-5.89-20-15.41-26.15-26.71-11.6-21.48-15.07-46.39-27.14-67.68-5.82-10.25-13.82-19.33-24.15-25.19-14-7.94-30.38-9.43-46.14-10.31-18-1-35.87-2.3-53.71-4.71-17.25-2.33-35-4.89-51.67-9.85-16.2-4.8-28-15.14-34.85-30.52-6.38-14.25-8.66-30.92-8.69-46.43,0-1-1.57-1.24-1.73-.24C885,284.41,887,315.9,909,334a62,62,0,0,0,16.25,9.43,3.66,3.66,0,0,0,.75,1.18c6.61,7.14,5.34,16.47.51,24.33-3.74,6.09-9.72,10.33-15.66,14.46-2.79,1.95-5.58,3.86-8.11,5.93-8.09,6.61-14.1,14.82-15.52,25.38-.19,1.42-.32,2.82-.38,4.2-.23-.63-.48-1.27-.74-1.89a.85.85,0,0,0-1.67.23c-1.37,11.13,2.56,24,6.66,34.31A117.67,117.67,0,0,0,909,482a123.72,123.72,0,0,0,58,40.15,128.81,128.81,0,0,0,75.25.65,124,124,0,0,0,35.07-16.57c10.64-7.29,20.36-16.12,31.91-22,11.72-6,24.12-7.86,35.77-1.67.71.39,1.43.8,2.14,1.24,11.76,7.32,17.53,19.95,19.32,33.26.3,2.26,3.92,2.07,4.37,0,2-9.18-.47-18.29-5.54-26C1179.28,495.19,1195.5,494.77,1208.45,487.88Zm-382.57-7.19c25.24-16,35.26-47.5,31-76-2.5-16.82-10-32.63-20.45-45.93-5.48-7-11.87-12.62-18.41-18.51-5.31-4.81-14.29-16.6-4.41-22a2.82,2.82,0,0,0,1.41-3.47,56.53,56.53,0,0,0,22.66-27.23c.56-1.42-1.72-2.34-2.43-1-6.13,11.41-15.52,19.1-26.46,24.12-17.47,8-38.89,9.15-57.44,7.59-20.86-1.78-41.47-6.23-62.44-6.87a117.79,117.79,0,0,0-50.94,9.3,119.81,119.81,0,0,0-63.51,65.79C559.83,424,573,464.3,565.23,502.83a125.77,125.77,0,0,1-12.84,35.37c-11.89,21.92-30,40.06-52.16,53-2.19,1.27-.27,4.35,1.95,3.33,26.45-12,47.42-34.52,60.28-60.45,21.47-19.17,48.17-33,75.47-41.28,31.39-9.5,62.81-9.2,95-4.56C763.58,492.69,798.09,498.27,825.88,480.69Zm13.26,622.52c.88.89,2.52-.29,1.77-1.38-13.08-19-34.21-29.17-55.75-35.66-23.21-7-47.23-11.23-70.07-19.43-44.81-16.08-86.17-45.31-117.47-81.13a265.39,265.39,0,0,1-43.41-69.39c-.43-1-2.17-.29-1.8.75,16.33,44.66,45,86.28,82.19,116.17a270.27,270.27,0,0,0,61.6,37.39c22.23,9.66,45.6,15.78,69.33,20.44C792.08,1076.2,819.48,1083.38,839.14,1103.21ZM512.69,841.81c3.38-29.35-6.66-61.79-26.9-83.52-10-10.67-22.87-21.08-37.11-25.14-7.06-2-14.69-3.2-21.91-4.76-6.7-1.43-15-3.24-21.67-1.12a1.4,1.4,0,0,0,0,2.68c6.22,2.43,13.63,2.44,20.14,4,3.59.82,7.45,1.65,10.76,3.31,3,1.52,5.78,3.73,8.63,5.53,11.64,7.35,23.26,13.76,33,23.7,9.45,9.64,18,20.84,23.61,33.2,6,13.2,9,27.75,9.88,42.16A.79.79,0,0,0,512.69,841.81Zm-36.55,221c.54.05.57-.73.12-.89-20.27-7.32-39.1-16-55.08-30.83-15.41-14.32-27.59-32.34-34.25-52.36-7.06-21.22-7.57-42.23-4.72-64.24,3.05-23.39,9.85-49.93,1.93-73-7.83-22.85-26.27-36.83-42-54a132.2,132.2,0,0,1-30.81-58.06,143,143,0,0,1-.46-65.29c5.63-24.1,20.91-44.38,26.72-68.3,2.85-11.71,3-24.05-1.79-35.29-4.88-11.53-13.81-18.14-24.3-24.27-11.53-6.73-21.24-14.86-28.23-26.4S273.23,485.42,272.55,472a2.3,2.3,0,0,0-4.59,0c-1.88,21.72,8.6,44.25,24.54,58.76,8.53,7.75,19.74,12.06,27.8,20.31,8.47,8.7,9.61,21.3,8.67,32.83-1,12.38-6.2,24-11.42,35.13s-10.56,22.6-13.86,34.65a146.76,146.76,0,0,0-2.57,65c4,21.72,12.61,43.09,25.5,61.06,13.69,19.08,35.51,33.12,45.07,55,10.34,23.67,4.21,51.43,1.08,75.93-2.86,22.25-2.36,44.44,5.63,65.64a146.44,146.44,0,0,0,38,56.3C432.71,1047.62,453.75,1060.62,476.14,1062.86Z"/><path class="cls-1" d="M1285.83,746.72a1.37,1.37,0,0,1,.32,2.48c-5.86,3.07-12.39,4.78-18.51,7.3a122.36,122.36,0,0,0-19.3,9.72,94.44,94.44,0,0,0-17.16,14c-.42,0-.86.07-1.3.12a30.3,30.3,0,0,0-18,9.86l-.06-.22a104,104,0,0,1,51.1-40.95,4.26,4.26,0,0,0,5.18-1.55A39.67,39.67,0,0,1,1285.83,746.72Z"/><path class="cls-1" d="M1268.64,745.41a3.86,3.86,0,0,1-.53,2.12c-1.74.44-3.46,1-5.18,1.55a3.81,3.81,0,0,1-2.34-2.57c-1.54-5.26-2.55-10.2-5.34-15a48.28,48.28,0,0,0-9.2-11.28,52.35,52.35,0,0,0-12.79-8.49c-2.77-1.33-5.94-2.06-8.87-3.17a27.89,27.89,0,0,1,9-.76,1.35,1.35,0,0,0,2,1.41,17.13,17.13,0,0,0,1.54-1.1,2.2,2.2,0,0,0,2-1.48,58,58,0,0,1,12.22,7.44C1260.15,721.28,1268.42,733.5,1268.64,745.41Z"/><path class="cls-1" d="M1268.11,747.53a4.26,4.26,0,0,1-5.18,1.55C1264.65,748.49,1266.37,748,1268.11,747.53Z"/><path class="cls-1" d="M1254.54,576.67c17.81,21.46,18.78,51.79,4,75.24A64.06,64.06,0,0,1,1248,664.74a81.87,81.87,0,0,0-10-1,1.64,1.64,0,0,0-.45,0l-.73-.93a61,61,0,0,0,21.5-33.75c5.87-25.1-6.92-48.35-28.77-60.58l.45-.79c2.85,2,8-.45,6.5-4.4a11.43,11.43,0,0,1-.6-2.35A71.09,71.09,0,0,1,1254.54,576.67Z"/><path class="cls-2" d="M1229.55,568.48c21.85,12.23,34.64,35.48,28.77,60.58a61,61,0,0,1-21.5,33.75c-11.27,8.7-25.55,12.5-40.13,7.15a214.07,214.07,0,0,0,21.4-19.8,1.11,1.11,0,0,0-1.34-1.74,284.42,284.42,0,0,0-26.16,18.26c-7.29,5.56-14.5,11.25-21.9,16.56A464.23,464.23,0,0,1,1118.52,715c-34.89,18.8-73.08,30.48-113,28.83-85.28-3.52-157-58.83-237.36-81.15-22-6.12-44.88-10.14-67.77-9.86a152.11,152.11,0,0,0-24.77,2.26c-2.34.41-4.67.87-7,1.4-11.09,2.51-21.15,6.71-31.27,11.87a.73.73,0,0,0,.56,1.33A158.12,158.12,0,0,1,664.6,663a49.84,49.84,0,0,0-11.38,16.51c-.2.46-.4,1-.63,1.49-1.84,1.91-2.6,4.45-4.34,6.47a18.82,18.82,0,0,1-6.19,4.68c-6.82,3.26-14.79,2.12-21.93.74-15.14-2.91-30.21-6.44-45.2-10.1C553.34,677.55,532,671,510.52,665.21c25.6-.14,51.69-13.8,71.07-29.59,32.27-26.31,53.54-64.47,90.28-85.63s82.53-21.73,122.69-10.66c43.49,12,82.06,37.19,118.07,63.6,17.2,12.6,33.81,26.74,53.08,36.05q4.45,2.17,9.11,3.95c20.79,7.91,44.79,6.45,62.9-6.93,2.22-1.65.14-5.41-2.21-3.78-15.39,10.64-35.33,9.25-52.42,3.4,3-.76,5.9-1.61,8.82-2.42,8.29-2.29,16.47-5,24.56-7.9A412.74,412.74,0,0,0,1064,604.72c29-14.79,56.72-33.2,88.29-42.34,25-7.24,53-7,76.35,5.59Z"/><path class="cls-1" d="M1258.57,798.09c.44,1.3-1.39,1.85-2.08.87-5.74-8.13-16.07-13.33-26.06-11.05a20.07,20.07,0,0,0-10.2,5.67,106.86,106.86,0,0,1,11-13.31A26.87,26.87,0,0,1,1258.57,798.09Z"/><path class="cls-1" d="M1236.81,488.56c10.49,5.44,16.37,19.27,15.63,30.58-.52,8-3.91,14.58-8.09,21.21-3.73,5.9-9.57,13.22-8.45,20.59a84.77,84.77,0,0,0-9.65-4.89c.56-10.39,10.08-19.5,14.37-29.24,6.17-14-1.17-27.87-10.71-38a1.37,1.37,0,0,1,1.32-2.27c.39.08.79.17,1.18.28a1.71,1.71,0,0,0,1.91,2.55C1235.18,489.14,1236,488.86,1236.81,488.56Z"/><path class="cls-1" d="M1248,664.74a56.11,56.11,0,0,1-4.8,4.07c-1.88-.6-3.77-1.19-5.65-1.75a1.75,1.75,0,0,1,0-3.32,1.64,1.64,0,0,1,.45,0A81.87,81.87,0,0,1,1248,664.74Z"/><path class="cls-1" d="M1237.55,667.06c1.88.56,3.77,1.15,5.65,1.75a59,59,0,0,1-8.19,5.24,21.49,21.49,0,0,0-3.54-1.83c-3.17-1.29-5.47,2.6-4.35,5.23-10.6,3.56-26.1,4.36-33.67-4.89,1.08-.85,2.16-1.72,3.24-2.6,14.58,5.35,28.86,1.55,40.13-7.15l.73.93A1.75,1.75,0,0,0,1237.55,667.06Z"/><path class="cls-1" d="M1235,674.05c11,7,13.13,22.82,4.06,32.12a3.36,3.36,0,0,0-2-3.92l-.51-.17c2.83-8.1-.64-19-8-23a3.23,3.23,0,0,1-1.47-1.62l1-.36A54.49,54.49,0,0,0,1235,674.05Z"/><path class="cls-1" d="M1237.12,702.25a3.36,3.36,0,0,1,2,3.92h0c-.1.12-.22.24-.34.36-1.19-.52-2.39-1-3.61-1.39a14.06,14.06,0,0,0,1.49-3.07Z"/><path class="cls-1" d="M1238.73,706.54c.12-.12.24-.24.34-.36a2.25,2.25,0,0,1-.14.44Z"/><path class="cls-1" d="M1238.73,706.54l.2.08a2.2,2.2,0,0,1-2,1.48A19.5,19.5,0,0,0,1238.73,706.54Z"/><path class="cls-1" d="M1238.73,706.54a19.5,19.5,0,0,1-1.81,1.56,2.94,2.94,0,0,1-.59,0c-1-.14-2-.23-3-.29a1.43,1.43,0,0,1,.35-.76,12.81,12.81,0,0,0,1.41-1.88C1236.34,705.55,1237.54,706,1238.73,706.54Z"/><path class="cls-1" d="M1236.33,708.08a2.94,2.94,0,0,0,.59,0,17.13,17.13,0,0,1-1.54,1.1,1.35,1.35,0,0,1-2-1.41C1234.33,707.85,1235.32,707.94,1236.33,708.08Z"/><path class="cls-4" d="M1228.59,679.07c7.38,4.06,10.85,14.91,8,23-11.61-3.83-26.54,1.72-34.09,10.92a31.88,31.88,0,0,0-7.22,17.19c-.36,3.88,1.17,13.42-1.93,17.2-14.86-5.68-31.28-2-43.54,8.05-6,5-10.2,11.52-14.14,18.18-2.29,3.87-5.41,10-9.5,13.91a2.35,2.35,0,0,0-2.12.5c-5.18,3.88-13.69-3.7-17.66-6.69a53.57,53.57,0,0,0-14.33-7.78,59.84,59.84,0,0,0-34.48-1.36c-10.94,2.73-21.38,8.59-28.82,17.15-4.13,4.75-6.81,10.41-10.53,15.44a25.44,25.44,0,0,1-9,7.24,2.23,2.23,0,0,0-1.67-1.26c-6-1-9.81-10.29-13.52-14.63a72.3,72.3,0,0,0-13.64-12.21A82.67,82.67,0,0,0,947,770.3a83.77,83.77,0,0,0-35.82,1.5,69,69,0,0,0-16.83,7.08c-3.87,2.27-8.4,6-13.13,8.45a3,3,0,0,0-1.35-.9c-5.94-1.83-10.63-2.16-14.54-7.81-3.36-4.85-4.82-10.84-7.35-16.13-4.45-9.26-12.25-15.47-22.43-17.19-9.76-1.66-19.92.36-28.93,4.22-7.46,3.21-17.47,9.61-26.68,9.94a2.16,2.16,0,0,0-1.1-2.35c-5.33-3-2.53-7.81-1.79-12.61a22,22,0,0,0-.81-10.24,29,29,0,0,0-12-14.91c-11.22-7.31-23.74-5.33-34.62.34a2.91,2.91,0,0,0-4.29.54,19.17,19.17,0,0,1-16.25,8.44c-1.64-14.8-5-31-20-37.69-5.86-2.64-12.56-3-18.32.09-6.4,3.38-10.79,9.58-16.48,14a20,20,0,0,0,1.37-7,44.59,44.59,0,0,1,1.93-10.2,39,39,0,0,1,1.79-4.73c4.3-9.52,11.52-14.66,19-21.41a3.89,3.89,0,0,0,.43-.48c27.28-2.24,55.23,1.48,81.37,8.5,41.21,11.06,79.18,30.07,118,47.25C916.42,733.9,956,749.37,998,752.67c39.36,3.09,77.63-7.17,112.58-24.85,19.78-10,38.41-22.15,56.26-35.24,8.83-6.48,17.9-13.05,26.62-20,7.57,9.25,23.07,8.45,33.67,4.89A3.23,3.23,0,0,0,1228.59,679.07Z"/><path class="cls-1" d="M1236.5,563.29c1.45,4-3.65,6.44-6.5,4.4a3.86,3.86,0,0,1-1.08-1.21,18.3,18.3,0,0,1-2.67-10.43,84.77,84.77,0,0,1,9.65,4.89A11.43,11.43,0,0,0,1236.5,563.29Z"/><path class="cls-1" d="M1236.81,488.56c-.81.3-1.63.58-2.49.84a1.71,1.71,0,0,1-1.91-2.55A20.59,20.59,0,0,1,1236.81,488.56Z"/><path class="cls-1" d="M1236.61,702.08a14.06,14.06,0,0,1-1.49,3.07c-5.31-1.74-10.73-2.17-15,.31a.56.56,0,0,0,0,1,19,19,0,0,0,4.28,2.13,24.14,24.14,0,0,0-9.46,5c-5.49,4.56-10.07,10.79-10.65,18.1-.56,7,1.51,16.49-5.93,20.92a9.88,9.88,0,0,1-9.13.26c1.09.08,2.19.22,3.27.39,2.89.45,5.47-3.86,2.21-5.24-.44-.2-.89-.37-1.33-.54,3.1-3.78,1.57-13.32,1.93-17.2a31.88,31.88,0,0,1,7.22-17.19C1210.07,703.8,1225,698.25,1236.61,702.08Z"/><path class="cls-1" d="M1235.12,705.15a12.81,12.81,0,0,1-1.41,1.88,1.43,1.43,0,0,0-.35.76,27.89,27.89,0,0,0-9,.76,19,19,0,0,1-4.28-2.13.56.56,0,0,1,0-1C1224.39,703,1229.81,703.41,1235.12,705.15Z"/><path class="cls-1" d="M1231.47,672.22a21.49,21.49,0,0,1,3.54,1.83,54.49,54.49,0,0,1-6.9,3l-1,.36C1226,674.82,1228.3,670.93,1231.47,672.22Z"/><path class="cls-1" d="M1229.88,780.39c.44,0,.88-.1,1.3-.12a106.86,106.86,0,0,0-11,13.31,25.75,25.75,0,0,0-3.45,4.41,4.27,4.27,0,0,1-3.41.51c-.2-1.44-.42-2.84-.64-4.18s-.51-2.73-.84-4.07A30.3,30.3,0,0,1,1229.88,780.39Z"/><path class="cls-1" d="M1230,567.69l-.45.79-.92-.51c-23.4-12.62-51.3-12.83-76.35-5.59-31.57,9.14-59.26,27.55-88.29,42.34a412.74,412.74,0,0,1-47.52,20.58c-8.09,2.92-16.27,5.61-24.56,7.9-2.92.81-5.86,1.66-8.82,2.42-1.93-.65-3.81-1.37-5.66-2.14-2.42-1-4.81-2.09-7.15-3.27,8.64-3.39,17.94-5.48,26.73-8.38,10.38-3.42,20.64-7.12,30.75-11.28,19.57-8,38.2-17.81,56.75-27.95,29.7-16.27,61.44-33.64,96.11-34.76,15.19-.48,31.31,2,45.63,8.21a18.3,18.3,0,0,0,2.67,10.43A3.86,3.86,0,0,0,1230,567.69Z"/><path class="cls-1" d="M1216.78,798a25.75,25.75,0,0,1,3.45-4.41c-.71,1-1.4,2-2.07,3A4.26,4.26,0,0,1,1216.78,798Z"/><path class="cls-1" d="M1216.75,648.42a1.11,1.11,0,0,1,1.34,1.74,214.07,214.07,0,0,1-21.4,19.8c-1.21-.44-2.41-.94-3.61-1.51a1.13,1.13,0,0,0-1.09.07l-1.4-1.84A284.42,284.42,0,0,1,1216.75,648.42Z"/><path class="cls-1" d="M1213.37,798.5a4.27,4.27,0,0,0,3.41-.51,40.47,40.47,0,0,0-2.83,5.3C1213.8,801.67,1213.59,800.06,1213.37,798.5Z"/><path class="cls-1" d="M1214,803.29c.52,5.56.48,11.31-1.16,16.24a4.29,4.29,0,0,1-2.73,2.56,10.6,10.6,0,0,0,.73-2.32,2.74,2.74,0,0,0-3.34-3.34,13.77,13.77,0,0,0-2.61,1,112.18,112.18,0,0,1-.1-12.31l1,0v0c0,4.28,5.59,4.5,7,.94C1213.12,805.16,1213.53,804.21,1214,803.29Z"/><path class="cls-1" d="M1213.37,798.5c.22,1.56.43,3.17.58,4.79-.42.92-.83,1.87-1.22,2.83-1.43,3.56-7,3.34-7-.94v0a22.31,22.31,0,0,1,5.55-14.17c-.24.38-.48.78-.71,1.18C1208.83,795.14,1210.83,797.86,1213.37,798.5Z"/><path class="cls-1" d="M1212.73,794.32c.22,1.34.44,2.74.64,4.18-2.54-.64-4.54-3.36-2.82-6.34.23-.4.47-.8.71-1.18s.41-.5.63-.73C1212.22,791.59,1212.51,792.94,1212.73,794.32Z"/><path class="cls-1" d="M1211.83,790l.06.22c-.22.23-.43.48-.63.73Z"/><path class="cls-1" d="M1211.83,790l-.57,1a22.31,22.31,0,0,0-5.55,14.17l-1,0c0-2.91.08-5.85-.13-8.73-.33-4.46-.6-9-1.31-13.38-.58-3.58-.82-8-1.84-11.45-.44-1.45,1.86-2.46,2.48-1,1.66,3.75,3.9,6.92,5.23,10.87C1210.14,784.27,1211.09,787.11,1211.83,790Z"/><path class="cls-1" d="M1207.45,816.43a2.74,2.74,0,0,1,3.34,3.34,10.6,10.6,0,0,1-.73,2.32c-2.1.73-4.63.1-5-2.56-.1-.7-.17-1.41-.23-2.1A13.77,13.77,0,0,1,1207.45,816.43Z"/><path class="cls-1" d="M1205.07,819.53c.36,2.66,2.89,3.29,5,2.56-2.56,6-10,10.59-14.9,14a102.29,102.29,0,0,1-20.24,11,89,89,0,0,1-19.41,5.61,114.36,114.36,0,0,0-14.08-2.39c-2.33-.28-5.06-.79-7.77-.95a3.09,3.09,0,0,0,.9-1.16c1.58-.3,3.17-.59,4.77-.74a91.11,91.11,0,0,0,10.74-1.67,127.6,127.6,0,0,0,21-6.18,96,96,0,0,0,19.71-10.89c4.58-3.28,8.82-8.73,14-11.29C1204.9,818.12,1205,818.83,1205.07,819.53Z"/><path class="cls-1" d="M1206.49,483.23c2.74-.7,4.54,3.28,2,4.65-13,6.89-29.17,7.31-43.18,3.07-6.82-10.39-18.3-18.3-29.86-20.56a78.64,78.64,0,0,1-7.38-11.07c-12.48-22.48-15.76-49-29.34-70.94-1-1.52-1.94-3-3-4.37a35.41,35.41,0,0,0,1.57-4.32c1-3.65-4-7-6.64-3.87-.37.43-.73.87-1.09,1.31a52,52,0,0,0-22.74-12.39c-17.34-4.54-35.92-3.66-53.66-5.21a559.53,559.53,0,0,1-56.46-7.9c-6.31-1.21-12.74-2.44-19-4.1a14.36,14.36,0,0,0-7.6-8.08c-2.88-1.31-5.82,1.38-4.77,4A62,62,0,0,1,909,334c-22.09-18.14-24-49.63-20-75.75.16-1,1.73-.72,1.73.24,0,15.51,2.31,32.18,8.69,46.43,6.9,15.38,18.65,25.72,34.85,30.52,16.71,5,34.42,7.52,51.67,9.85,17.84,2.41,35.75,3.71,53.71,4.71,15.76.88,32.15,2.37,46.14,10.31,10.33,5.86,18.33,14.94,24.15,25.19,12.07,21.29,15.54,46.2,27.14,67.68,6.1,11.3,14.61,20.82,26.15,26.71C1177,486.91,1191.93,487,1206.49,483.23Z"/><path class="cls-1" d="M1196.69,670c-1.08.88-2.16,1.75-3.24,2.6a17.51,17.51,0,0,1-1.81-2.66,1,1,0,0,1,.35-1.38,1.13,1.13,0,0,1,1.09-.07C1194.28,669,1195.48,669.52,1196.69,670Z"/><path class="cls-1" d="M1194.7,747.93c3.26,1.38.68,5.69-2.21,5.24-1.08-.17-2.18-.31-3.27-.39a5.22,5.22,0,0,1-2.5-2.91,1,1,0,0,1,1.18-1.18c2.64.67,4.35.06,5.47-1.3C1193.81,747.56,1194.26,747.73,1194.7,747.93Z"/><path class="cls-1" d="M1191.64,669.9a17.51,17.51,0,0,0,1.81,2.66c-8.72,7-17.79,13.54-26.62,20-17.85,13.09-36.48,25.23-56.26,35.24-35,17.68-73.22,27.94-112.58,24.85-42-3.3-81.57-18.77-119.72-35.65-38.83-17.18-76.8-36.19-118-47.25-26.14-7-54.09-10.74-81.37-8.5,1.45-2-.55-5-3-4.64l-.27-1.52a152.11,152.11,0,0,1,24.77-2.26c22.89-.28,45.76,3.74,67.77,9.86,80.32,22.32,152.08,77.63,237.36,81.15,39.93,1.65,78.12-10,113-28.83a464.23,464.23,0,0,0,50.17-31.79c7.4-5.31,14.61-11,21.9-16.56l1.4,1.84A1,1,0,0,0,1191.64,669.9Z"/><path class="cls-1" d="M1193.37,747.39c-1.12,1.36-2.83,2-5.47,1.3a1,1,0,0,0-1.18,1.18,5.22,5.22,0,0,0,2.5,2.91c-15.63-1.47-31.85,4.22-41.13,17.31-4.19,5.9-7.55,12.31-12.65,17.53a18.44,18.44,0,0,1-8,5.08l.1-.13c1.32-1.7.37-4.54-1.38-5,4.09-3.95,7.21-10,9.5-13.91,3.94-6.66,8.1-13.21,14.14-18.18C1162.09,745.37,1178.51,741.71,1193.37,747.39Z"/><path class="cls-1" d="M1185.87,874.72c.71,1.35-1.19,3-2.21,1.71-7.1-9.08-17.35-13.25-28.21-15.95a109.51,109.51,0,0,0-17.08-2.75c-4.41-.4-10.37.27-13.78-3a2.42,2.42,0,0,1,0-3.39,9.3,9.3,0,0,1,3.54-1.66,1.23,1.23,0,0,0,.71,2c4,.93,7.08,2,11.32,2.07a96.2,96.2,0,0,0,12.59-.66c.93-.1,1.84-.24,2.76-.39,1.38.34,2.75.73,4.09,1.16C1170.8,857.48,1180.37,864.25,1185.87,874.72Z"/><path class="cls-1" d="M1165.27,491c5.07,7.74,7.55,16.85,5.54,26-.45,2.07-4.07,2.26-4.37,0-1.79-13.31-7.56-25.94-19.32-33.26-.71-.44-1.43-.85-2.14-1.24l2.25-.58a56.61,56.61,0,0,0,13.75,7.59C1162.38,490,1163.81,490.52,1165.27,491Z"/><path class="cls-1" d="M1165.27,491c-1.46-.43-2.89-.92-4.29-1.46a56.61,56.61,0,0,1-13.75-7.59,64.39,64.39,0,0,1-11.82-11.51C1147,472.65,1158.45,480.56,1165.27,491Z"/><path class="cls-1" d="M1155.51,852.7c-.92.15-1.83.29-2.76.39a96.2,96.2,0,0,1-12.59.66c-4.24-.06-7.34-1.14-11.32-2.07a1.23,1.23,0,0,1-.71-2c.46-.11.94-.19,1.43-.26a3.29,3.29,0,0,0,4.1-.08c2.71.16,5.44.67,7.77.95A114.36,114.36,0,0,1,1155.51,852.7Z"/><path class="cls-1" d="M1147.23,481.9l-2.25.58c-11.65-6.19-24-4.35-35.77,1.67-11.55,5.92-21.27,14.75-31.91,22a124,124,0,0,1-35.07,16.57,128.81,128.81,0,0,1-75.25-.65A123.72,123.72,0,0,1,909,482a117.67,117.67,0,0,1-17.88-30.36c-4.1-10.26-8-23.18-6.66-34.31a.85.85,0,0,1,1.67-.23c.26.62.51,1.26.74,1.89-.51,10.33,2.23,19.86,5,29.92a1.06,1.06,0,0,0,2-.56,93.53,93.53,0,0,1-2-13.88c.23.71.47,1.41.73,2.09a125.07,125.07,0,0,0,9.18,19.1,132.61,132.61,0,0,0,25.08,31.91c38.65,35.62,99.28,40.12,143.16,11.28,20.19-13.27,38.74-33.5,65.19-28.46l.17,0A64.39,64.39,0,0,0,1147.23,481.9Z"/><path class="cls-2" d="M1135.41,470.39l-.17,0c-26.45-5-45,15.19-65.19,28.46-43.88,28.84-104.51,24.34-143.16-11.28a132.61,132.61,0,0,1-25.08-31.91,125.07,125.07,0,0,1-9.18-19.1c-.26-.68-.5-1.38-.73-2.09-.56-8.87.4-18,4.41-25.54,3.59-6.79,9.45-11.63,15.61-16.09,1.61,9.2,8.74,17,16.37,22.16,11.78,8,25.61,11.85,39.48,14.3,32.87,5.8,68.07,4,97.09-13.94,11.66-7.24,25.1-18.13,30.83-31.31,1.06,1.39,2,2.85,3,4.37,13.58,21.9,16.86,48.46,29.34,70.94A78.64,78.64,0,0,0,1135.41,470.39Z"/><path class="cls-1" d="M1134.35,845.44a3.15,3.15,0,0,1,.21,2.76c-1.8.34-3.58.69-5.37.86h0a3.47,3.47,0,0,1-.66-1.15c-2.32-6.32-4.25-12.9-6.6-19.24,0-1.7-.06-3.41-.1-5.12a1.59,1.59,0,0,0-.42-1.12,1,1,0,0,1,.87.57C1125.82,830.64,1130.43,838,1134.35,845.44Z"/><path class="cls-1" d="M1134.56,848.2a3.09,3.09,0,0,1-.9,1.16,20.69,20.69,0,0,0-4.1.08,1.75,1.75,0,0,1-.39-.38h0C1131,848.89,1132.76,848.54,1134.56,848.2Z"/><path class="cls-1" d="M1129.56,849.44a20.69,20.69,0,0,1,4.1-.08A3.29,3.29,0,0,1,1129.56,849.44Z"/><path class="cls-1" d="M1129.17,849.06a1.75,1.75,0,0,0,.39.38c-.49.07-1,.15-1.43.26A1.47,1.47,0,0,1,1129.17,849.06Z"/><path class="cls-1" d="M1126.19,787.53c1.75.5,2.7,3.34,1.38,5l-.1.13a27.43,27.43,0,0,1-8.76.88,1.14,1.14,0,0,1,0-2.27A12,12,0,0,0,1126.19,787.53Z"/><path class="cls-1" d="M1124.07,788a2.35,2.35,0,0,1,2.12-.5,12,12,0,0,1-7.48,3.78,1.14,1.14,0,0,0,0,2.27,27.43,27.43,0,0,0,8.76-.88c-9.83,12.41-24.29-4.48-33.65-9-11.92-5.82-26.18-6.08-38.64-1.93a47.56,47.56,0,0,0-17.19,10c-5.39,5-8.63,11.29-13,17-3.76,5-8.82,9.74-15.47,9.66a13.61,13.61,0,0,1-8.24-2.64,12,12,0,0,0,6.32.35c1.83-.36,2.41-2.61,1.67-4.08a25.44,25.44,0,0,0,9-7.24c3.72-5,6.4-10.69,10.53-15.44,7.44-8.56,17.88-14.42,28.82-17.15a59.84,59.84,0,0,1,34.48,1.36,53.57,53.57,0,0,1,14.33,7.78C1110.38,784.33,1118.89,791.91,1124.07,788Z"/><path class="cls-1" d="M1122.29,862.55c.43,3.5-3.82,4.43-6.08,2.77a3.14,3.14,0,0,0-1.36-3.29q0-.22.09-.48c1.29-6.32,1-13.09,1.69-19.52.63-6.16,1.15-12.31,1.81-18.48a1.74,1.74,0,0,1,3-1.12c-.79-.07-1.71.63-1.34,1.5.65,1.56,1.28,3.14,1.86,4.74.08,4.8.14,9.59.23,14.39C1122.26,849.49,1121.52,856.15,1122.29,862.55Z"/><path class="cls-1" d="M1121.81,823.55c0,1.71.07,3.42.1,5.12-.58-1.6-1.21-3.18-1.86-4.74-.37-.87.55-1.57,1.34-1.5A1.59,1.59,0,0,1,1121.81,823.55Z"/><path class="cls-1" d="M1114.85,862a3.14,3.14,0,0,1,1.36,3.29A3.4,3.4,0,0,1,1114.85,862Z"/><path class="cls-1" d="M1114.85,862a3.4,3.4,0,0,0,1.36,3.29,2.86,2.86,0,0,1-2,2.27c-14.6,5.26-30.44,9.2-46.1,9a28.74,28.74,0,0,0-4.23-3.63c16.57-2.57,32.88-5.16,48.78-11.05A2.46,2.46,0,0,1,1114.85,862Z"/><path class="cls-1" d="M1107.82,990.61a2.24,2.24,0,0,1,2.61,2.09,10.62,10.62,0,0,1-1.17,4.22c-1.93.68-3.86,1.33-5.79,2,1-2.62,1.67-5.44,3.4-7.68A1.61,1.61,0,0,1,1107.82,990.61Z"/><path class="cls-1" d="M1103.47,998.9c1.93-.65,3.86-1.3,5.79-2a42.93,42.93,0,0,1-3,4.89,32.32,32.32,0,0,1-2.94,3.81c.11-.73.2-1.45.29-2.18a1.91,1.91,0,0,0-1.24-2.07c.22-.5.43-1,.65-1.46S1103.34,999.24,1103.47,998.9Z"/><path class="cls-1" d="M1107.37,989l.45,1.65a1.61,1.61,0,0,0-1,.61c-1.73,2.24-2.38,5.06-3.4,7.68a416.08,416.08,0,0,1-103.37,20.16c-73.42,4.83-146.71-11.33-212.53-43.81-66-32.56-124.07-81-169.14-139-22.65-29.18-40.27-61.07-59-92.79-17.89-30.31-38.33-61.09-68.54-80.29,6.07,2.57,12.27,4.88,18.54,7.05l1.42,1c28.06,21.14,46.62,52.36,64,82.22,18.17,31.22,36.68,61.72,59.81,89.6C680.68,898.5,738.76,944,804.37,973.9c65.2,29.74,137.23,42.75,208.67,35.83A403.68,403.68,0,0,0,1107.37,989Z"/><path class="cls-1" d="M1102.41,1001.37a1.91,1.91,0,0,1,1.24,2.07c-.09.73-.18,1.45-.29,2.18-1.2,1.37-2.49,2.67-3.83,4a.66.66,0,0,1-1-.79A57.84,57.84,0,0,0,1102.41,1001.37Z"/><path class="cls-1" d="M1099,1002.81a2.43,2.43,0,0,1,3.41-1.44,57.84,57.84,0,0,1-3.91,7.5.66.66,0,0,0,1,.79c1.34-1.37,2.63-2.67,3.83-4a146.23,146.23,0,0,1-20,55.39,153.11,153.11,0,0,1-85.21,67.34c-22.38,7-46.35,8.4-69.68,8.32-12.88,0-25.8-.11-38.68-.64-5.33-.2-10.71-.33-16-.82a30.47,30.47,0,0,0-6.22-5.68,26.9,26.9,0,0,0-4.39-2.46c3.24-.75,6.94-.71,9.71-.94,6.68-.54,13.42-.63,20.12-.82,13.19-.38,26.41-.11,39.62-.31,22.33-.35,44.8-1.88,66.06-9.25a145.62,145.62,0,0,0,45.16-25.65C1071.32,1067.21,1090.68,1037.72,1099,1002.81Z"/><path class="cls-1" d="M1090.62,375.82c2.63-3.09,7.69.22,6.64,3.87a35.41,35.41,0,0,1-1.57,4.32,52.58,52.58,0,0,0-6.16-6.88C1089.89,376.69,1090.25,376.25,1090.62,375.82Z"/><path class="cls-1" d="M1089.53,377.13a52.58,52.58,0,0,1,6.16,6.88c-5.73,13.18-19.17,24.07-30.83,31.31-29,18-64.22,19.74-97.09,13.94-13.87-2.45-27.7-6.29-39.48-14.3-7.63-5.19-14.76-13-16.37-22.16,1.15-.83,2.32-1.66,3.49-2.48,6,12.42,17.08,19.93,30.44,24.45,17.51,5.9,36.87,8.37,55.29,8.09,19-.28,37.92-4.21,54.56-13.48a90.12,90.12,0,0,0,19.8-14.79C1080.86,389.25,1084.79,382.93,1089.53,377.13Z"/><path class="cls-1" d="M1068.56,877c2.48,2.69,6.37,7,6.06,10.81a1.19,1.19,0,0,1-1.77,1c-3.25-1.77-5.11-5.66-8.21-7.89a41.8,41.8,0,0,0-6.27-3.76l.62-1.2a85,85,0,0,0,9.17.59Z"/><path class="cls-1" d="M1063.93,873a28.74,28.74,0,0,1,4.23,3.63A85,85,0,0,1,1059,876c-1.15-.14-1.68-2-.3-2.22Z"/><path class="cls-1" d="M1056.76,869a36.46,36.46,0,0,1,7.17,3.94l-5.24.82c-1.38.21-.85,2.08.3,2.22l-.62,1.2a35.35,35.35,0,0,0-4.13-1.68,33.39,33.39,0,0,0-12.19-1.71,50.62,50.62,0,0,0-6.71,1.17,51.38,51.38,0,0,0-5.68-5.65C1036.39,863.52,1049.43,866,1056.76,869Z"/><path class="cls-1" d="M1040.33,881.77c7.54,12.3,8.2,26,1.61,38.65-.43.83-1.6.23-1.43-.6,2.35-11.25-1.79-24.11-8.14-33.39a40.45,40.45,0,0,0-12.62-11.81c-3.55-2.08-7.46-3.15-11.26-4.5-.07-1.56-.18-3.12-.32-4.68a39.68,39.68,0,0,0-.65-4.41c7.83-1,15.71,2.84,22.14,8.32-.26.22-.51.46-.75.7a3.13,3.13,0,0,0,2.19,5.28,16.79,16.79,0,0,0,4.24-.33A50.14,50.14,0,0,1,1040.33,881.77Z"/><path class="cls-1" d="M1035.51,632.22c2.35-1.63,4.43,2.13,2.21,3.78-18.11,13.38-42.11,14.84-62.9,6.93q-4.67-1.77-9.11-3.95l.55-1.13a2.65,2.65,0,0,0,1.4.31,71.34,71.34,0,0,0,15.43-2.54C1000.18,641.47,1020.12,642.86,1035.51,632.22Z"/><path class="cls-1" d="M1035.34,875a16.79,16.79,0,0,1-4.24.33,3.13,3.13,0,0,1-2.19-5.28c.24-.24.49-.48.75-.7A51.38,51.38,0,0,1,1035.34,875Z"/><path class="cls-1" d="M1009.28,812c.74,1.47.16,3.72-1.67,4.08a12,12,0,0,1-6.32-.35,14.49,14.49,0,0,1-4-4.62.85.85,0,0,1,1.47-.87C1001.42,814,1005.47,813.78,1009.28,812Z"/><path class="cls-1" d="M1008.49,870.12c.22,3.55.31,7.09.31,10.67,0,3.73-3.75,5.06-6.41,4,3-1.53,5.57-3.81,5.2-7.63-.34-3.61-3.67-6.4-7.1-4.73a1.29,1.29,0,0,0-.54.45c.1-2.47.25-4.93.46-7.41.39-4.54,1.76-8.87,2.32-13.29a1.56,1.56,0,0,1,3.12,0c.37,3,1.11,5.89,1.67,8.88-.57.06-1.13.16-1.7.27-3.22.7-4.1,5.91-1,7.36C1006.05,869.2,1007.26,869.68,1008.49,870.12Z"/><path class="cls-1" d="M1008.17,865.44c.14,1.56.25,3.12.32,4.68-1.23-.44-2.44-.92-3.63-1.46-3.14-1.45-2.26-6.66,1-7.36.57-.11,1.13-.21,1.7-.27A39.68,39.68,0,0,1,1008.17,865.44Z"/><path class="cls-1" d="M1007.61,810.77a2.23,2.23,0,0,1,1.67,1.26c-3.81,1.75-7.86,2-10.49-1.76a.85.85,0,0,0-1.47.87,14.49,14.49,0,0,0,4,4.62c-3.35-1.17-6-3.86-8.55-7.1A85.5,85.5,0,0,0,980,795.07a76.91,76.91,0,0,0-34-15.7,73.3,73.3,0,0,0-38,2.48c-6.72,2.33-12.5,6.27-19,9a30.13,30.13,0,0,1-10.47,2.39,10.34,10.34,0,0,0,3-2.8,2.48,2.48,0,0,0-.3-3.12c4.73-2.43,9.26-6.18,13.13-8.45a69,69,0,0,1,16.83-7.08A83.77,83.77,0,0,1,947,770.3a82.67,82.67,0,0,1,33.46,13.63,72.3,72.3,0,0,1,13.64,12.21C997.8,800.48,1001.59,809.74,1007.61,810.77Z"/><path class="cls-1" d="M1007.59,877.13c.37,3.82-2.17,6.1-5.2,7.63a4.07,4.07,0,0,1-2.6-4c0-1.51,0-3,.05-4.51.94-.52,1.48-1,1-1.17a1.8,1.8,0,0,1-.94-1c0-.43,0-.87,0-1.3a1.29,1.29,0,0,1,.54-.45C1003.92,870.73,1007.25,873.52,1007.59,877.13Z"/><path class="cls-1" d="M1000.85,875.11c.47.19-.07.65-1,1.17,0-.71,0-1.42.07-2.13A1.8,1.8,0,0,0,1000.85,875.11Z"/><path class="cls-1" d="M1000,872.85c0,.43,0,.87,0,1.3A1.33,1.33,0,0,1,1000,872.85Z"/><path class="cls-1" d="M999.79,880.79a4.07,4.07,0,0,0,2.6,4,33,33,0,0,1-4.5,1.77A193,193,0,0,1,952,895.22a204.34,204.34,0,0,1-46.74-2.16c-15.15-2.39-31.05-6.07-44.86-12.9-2.38-1.17-2.6-3.76-1.58-5.72l0,1.16c.1,4.63,7.32,4.64,7.2,0,0-.91-.06-1.82-.1-2.74,10.76,3.47,21.28,7.25,32.41,9.57a195.79,195.79,0,0,0,34.63,4,202.87,202.87,0,0,0,35.77-2.14c5.95-.9,11.87-2.09,17.72-3.54,2.77-.68,5.51-1.44,8.25-2.24a46.62,46.62,0,0,0,5.16-2.21C999.8,877.77,999.79,879.28,999.79,880.79Z"/><path class="cls-1" d="M983.09,635.62a71.34,71.34,0,0,1-15.43,2.54,2.65,2.65,0,0,1-1.4-.31c-2.12-1.08-2.78-4.66-.26-5.83,1.41-.64,2.83-1.25,4.28-1.81,2.34,1.18,4.73,2.26,7.15,3.27C979.28,634.25,981.16,635,983.09,635.62Z"/><path class="cls-1" d="M970.28,630.21c-1.45.56-2.87,1.17-4.28,1.81-2.52,1.17-1.86,4.75.26,5.83l-.55,1.13c-19.27-9.31-35.88-23.45-53.08-36.05-36-26.41-74.58-51.61-118.07-63.6C754.4,528.26,708.74,528.75,671.87,550s-58,59.32-90.28,85.63c-19.38,15.79-45.47,29.45-71.07,29.59q-7.23-2-14.5-3.72c-2.2-1.28-4.43-2.48-6.71-3.62a2,2,0,0,0-.45-.16l.05-.17c18.57,5.32,38.43,1.77,56-6.57,20.38-9.69,36.69-25,51.75-41.5,27.12-29.73,51.59-62.09,90.36-77.14,38.25-14.84,81.94-12.3,120.43.25,41.94,13.67,79,38.2,114.23,64.25C937.29,608.42,952.72,621.44,970.28,630.21Z"/><path class="cls-1" d="M937.66,347.53a25.29,25.29,0,0,1,.91,14c-2,9.78-8.11,17.4-15.78,23.39-2.36,1.84-4.88,3.6-7.38,5.37a44.49,44.49,0,0,1-1.88-4.44.87.87,0,0,0-1.3-.51l-1.34-1.93c5.94-4.13,11.92-8.37,15.66-14.46,4.83-7.86,6.1-17.19-.51-24.33a3.66,3.66,0,0,1-.75-1.18A102.82,102.82,0,0,0,937.66,347.53Z"/><path class="cls-1" d="M937.66,347.53a102.82,102.82,0,0,1-12.37-4.06c-1-2.64,1.89-5.33,4.77-4A14.36,14.36,0,0,1,937.66,347.53Z"/><path class="cls-1" d="M927.3,1216.69c2.93,18.13-.18,35.83-6.61,52.53a172.57,172.57,0,0,0,3-33.47c0-2.16-3.4-2.73-3.85-.52-1,4.77-1.94,9.82-3,15,4.25-26-1.39-55-24.07-71a62.81,62.81,0,0,0-16.17-8,4.09,4.09,0,0,0,4.51-4.07c0-1.22,0-2.44,0-3.64,10.55,2.77,20.41,6.92,28.22,15.28C919,1189.18,925,1202.76,927.3,1216.69Z"/><path class="cls-1" d="M919.85,1235.23c.45-2.21,3.86-1.64,3.85.52a172.57,172.57,0,0,1-3,33.47c-5.76,15-14.23,29.24-23.41,42.21a.93.93,0,0,1-1.61-.94c2.24-5.29,4.56-10.58,6.8-15.89,6.12-10.35,9.74-22.85,12.5-35.24q.49-2,.93-4c.36-1.71.69-3.44,1-5.16C917.91,1245.05,918.86,1240,919.85,1235.23Z"/><path class="cls-1" d="M916.88,1250.24c-.29,1.72-.62,3.45-1,5.16q-.43,2-.93,4C915.66,1256.3,916.28,1253.25,916.88,1250.24Z"/><path class="cls-1" d="M913.53,385.88a44.49,44.49,0,0,0,1.88,4.44c-1.17.82-2.34,1.65-3.49,2.48a22.56,22.56,0,0,1-.16-6.68,1,1,0,0,1,.47-.75A.87.87,0,0,1,913.53,385.88Z"/><path class="cls-1" d="M910.89,383.44l1.34,1.93a1,1,0,0,0-.47.75,22.56,22.56,0,0,0,.16,6.68c-6.16,4.46-12,9.3-15.61,16.09-4,7.58-5,16.67-4.41,25.54-1.74-5.14-3.11-10.42-5-15.48.06-1.38.19-2.78.38-4.2,1.42-10.56,7.43-18.77,15.52-25.38C905.31,387.3,908.1,385.39,910.89,383.44Z"/><path class="cls-1" d="M920.69,1269.22a93.3,93.3,0,0,1-10.46,28.67c-7.62,13.14-20.09,25.24-35,29.47-8.34,2.37-17,1.76-25.28-.31-9.46-2.36-18.79-6.54-28.72-5.89-9.46.64-18.16,5.48-26.29,9.94-8.94,4.92-17.9,9.78-27.1,14.19-8.7,4.19-17.5,8.19-26.44,11.82-8.44,3.42-18.49,8.57-27.78,8a.79.79,0,0,1-.56-1.33,22.24,22.24,0,0,1,2.16-1.87c3.23-2.46,7-4,10.7-5.82,5.07-2.44,10.17-4.82,15.26-7.22q14.4-6.81,28.45-14.34c15.3-8.17,30.92-20.53,48.5-23s33.81,9.81,51.36,6.63c15.82-2.86,26-11.86,33-23.64-2.24,5.31-4.56,10.6-6.8,15.89a.93.93,0,0,0,1.61.94C906.46,1298.46,914.93,1284.25,920.69,1269.22Z"/><path class="cls-1" d="M902.47,1294.6c4.88-11.5,9.49-23.12,12.5-35.24C912.21,1271.75,908.59,1284.25,902.47,1294.6Z"/><path class="cls-1" d="M894.27,192.87c.74,4.13-1.11,9.24-2,13a116.38,116.38,0,0,1-6.33,19.06,101.77,101.77,0,0,1-20.76,30.38,122,122,0,0,0,12.49-22.45,130.44,130.44,0,0,0,6.43-19.43c1-3.86,2.84-9.4,2.64-14.08a3.45,3.45,0,0,0,4.4-1.51A31.12,31.12,0,0,1,894.27,192.87Z"/><path class="cls-1" d="M893.88,448.31a1.06,1.06,0,0,1-2,.56c-2.73-10.06-5.47-19.59-5-29.92,1.91,5.06,3.28,10.34,5,15.48A93.53,93.53,0,0,0,893.88,448.31Z"/><path class="cls-1" d="M892.36,189a7.4,7.4,0,0,1,1.91,3.91,31.12,31.12,0,0,0-3.14,4.93,3.45,3.45,0,0,1-4.4,1.51,9.92,9.92,0,0,0-1.12-4.56c.61-2.52,1.66-4.8,3.8-6.17A2.45,2.45,0,0,1,892.36,189Z"/><path class="cls-1" d="M886.73,199.31c.2,4.68-1.68,10.22-2.64,14.08a130.44,130.44,0,0,1-6.43,19.43,122,122,0,0,1-12.49,22.45c-.76.8-1.55,1.57-2.34,2.34-1.26,1.22-3.55-.41-2.49-1.92q4-5.64,7.46-11.62a2.45,2.45,0,0,0,2.74-1,97.93,97.93,0,0,0,13.22-37.76c.14-.55.27-1.11.4-1.67.36-1.62.56-3.5.81-5.39A4.2,4.2,0,0,0,886.73,199.31Z"/><path class="cls-1" d="M885.61,194.75a9.92,9.92,0,0,1,1.12,4.56A4.2,4.2,0,0,1,885,198.2,34.48,34.48,0,0,1,885.61,194.75Z"/><path class="cls-1" d="M885.36,194.32c.08.14.17.28.25.43a34.48,34.48,0,0,0-.64,3.45,3.16,3.16,0,0,1-.47-.62c.08-1.08.12-2.17.15-3.26.08-.19.16-.38.26-.57A3.33,3.33,0,0,1,885.36,194.32Z"/><path class="cls-1" d="M884.91,193.75c-.1.19-.18.38-.26.57,0-.26,0-.52,0-.77A1.41,1.41,0,0,1,884.91,193.75Z"/><path class="cls-1" d="M839.68,100.34c29,21.49,45.81,57.6,45,93.21a3.06,3.06,0,0,0-4.09.16c-4.13,3.76-3.94,12-5.15,17.29-1.46,6.31-3.34,12.46-5.4,18.6-.07.24-.16.47-.25.71,7.43-24.77,7.1-50.87-2.15-75.49A101.63,101.63,0,0,0,809.09,96.1c-23.86-9.22-50.24-10.07-74.37-1.35-22.87,8.27-42,24.11-58.68,41.4-17.79,18.41-33.38,38.81-50.22,58.06a343.18,343.18,0,0,1-62.23,56.19c-51,35.48-110.78,50.48-168,72.34q-3,1.14-6,2.34l-.73-1.82a117.47,117.47,0,0,0,18-9.36.25.25,0,0,0-.19-.46c-7.7,1.87-15.35,3.4-23,5.68s-15.2,4.46-22.79,6.73l-2.82.86a534,534,0,0,1,51.13-20.93c30.91-11.07,62.47-20.61,92.56-33.89a325.22,325.22,0,0,0,80-49.84c41.49-35.44,69.17-84.64,112.76-117.71,20.63-15.64,45-26.12,71.11-27A119,119,0,0,1,839.68,100.34Z"/><path class="cls-1" d="M884.67,193.55c0,.25,0,.51,0,.77s-.19.42-.28.63a2.87,2.87,0,0,0,.13,2.63q-.22,3.85-.74,7.68a130.67,130.67,0,0,1-5.15,16.15,159,159,0,0,1-10.81,22.66,2.18,2.18,0,0,1-1.77-2.95c1.41-3.58,2.67-7.18,3.75-10.81.09-.24.18-.47.25-.71,2.06-6.14,3.94-12.29,5.4-18.6,1.21-5.25,1-13.53,5.15-17.29A3.06,3.06,0,0,1,884.67,193.55Z"/><path class="cls-1" d="M884.37,195c.09-.21.18-.42.28-.63,0,1.09-.07,2.18-.15,3.26A2.87,2.87,0,0,1,884.37,195Z"/><path class="cls-1" d="M884.5,197.58a3.16,3.16,0,0,0,.47.62c-.25,1.89-.45,3.77-.81,5.39-.13.56-.26,1.12-.4,1.67Q884.27,201.44,884.5,197.58Z"/><path class="cls-1" d="M881.21,787.33a2.48,2.48,0,0,1,.3,3.12,10.34,10.34,0,0,1-3,2.8,34.48,34.48,0,0,1-8.11-.69c-2-.4-1.12-3.3.83-3C874.58,790,877.94,789,881.21,787.33Z"/><path class="cls-1" d="M873.73,1135.21c6.36,7.64,8.78,18,7.35,27.93a51.17,51.17,0,0,0-4.69-18.94,45.46,45.46,0,0,0-6-9.3l0,0c.44,0,.87.08,1.29.12Z"/><path class="cls-1" d="M881.1,1163.53c.06,1.2.07,2.42,0,3.64a4.09,4.09,0,0,1-4.51,4.07c-.77-.27-1.54-.52-2.33-.77a3.84,3.84,0,0,1-1.61-3.3c0-1.36,0-2.71-.11-4.05,1.42,3.78,7.47,4.86,8.42.39Z"/><path class="cls-1" d="M881.1,1163.53l-.09,0,.07-.36C881.09,1163.27,881.1,1163.4,881.1,1163.53Z"/><path class="cls-1" d="M881.08,1163.14h0l-.07.36c-2.8-.73-5.65-1.36-8.53-2,0-.36-.08-.72-.11-1.08a27.34,27.34,0,0,0-6-20.71c-.35-.68-.7-1.36-1.06-2a26,26,0,0,1-2-3.55.36.36,0,0,0,0-.11,54.26,54.26,0,0,0,7.14.78l0,0a45.46,45.46,0,0,1,6,9.3A51.17,51.17,0,0,1,881.08,1163.14Z"/><path class="cls-1" d="M879.86,786.43a3,3,0,0,1,1.35.9c-3.27,1.67-6.63,2.71-9.94,2.22-1.95-.29-2.84,2.61-.83,3a34.48,34.48,0,0,0,8.11.69c-7.75,4.78-18.78-5.22-22.55-12-5.88-10.51-7.08-23.66-20.77-26.85-11.75-2.74-23.2,2.1-33.81,6.58-5.45,2.31-11,4.35-17,4.68-5.23.29-8.51-1.31-12-4.25a5.37,5.37,0,0,0,6.41-.23,2.74,2.74,0,0,0,1.1-1.74c9.21-.33,19.22-6.73,26.68-9.94,9-3.86,19.17-5.88,28.93-4.22,10.18,1.72,18,7.93,22.43,17.19,2.53,5.29,4,11.28,7.35,16.13C869.23,784.27,873.92,784.6,879.86,786.43Z"/><path class="cls-1" d="M878.61,221.41a130.67,130.67,0,0,0,5.15-16.15A97.93,97.93,0,0,1,870.54,243a2.45,2.45,0,0,1-2.74,1A159,159,0,0,0,878.61,221.41Z"/><path class="cls-1" d="M881,1163.51c-1,4.47-7,3.39-8.42-.39,0-.52-.07-1-.11-1.56C875.36,1162.15,878.21,1162.78,881,1163.51Z"/><path class="cls-1" d="M874.31,1170.47c.79.25,1.56.5,2.33.77A4.41,4.41,0,0,1,874.31,1170.47Z"/><path class="cls-1" d="M874.31,1170.47c-6.51-2-13.29-3.4-20.26-4.93-13-2.86-25.63-6.57-35.33-16.1-1.5-1.48.51-4.2,2.29-3,14.51,10,32.38,11.27,49.17,14.61l2.11.43a4.66,4.66,0,0,0,.3,1.61c.08,1.34.12,2.69.11,4.05A3.84,3.84,0,0,0,874.31,1170.47Z"/><path class="cls-1" d="M873.73,1135.21l-2.1-.21c-.42,0-.85-.09-1.29-.12a15.26,15.26,0,0,0-3.29-3.6c-1.15-.73-1.81,0-2.93-1-.69-.6-1.91.18-1.34,1,.88,1.33.08,1.66.42,2.78a9.66,9.66,0,0,1-5.67-3,.71.71,0,0,1,0-1,9.8,9.8,0,0,1,5.59-3,26.9,26.9,0,0,1,4.39,2.46A30.47,30.47,0,0,1,873.73,1135.21Z"/><path class="cls-1" d="M872.48,1161.56c0,.52.07,1,.11,1.56a4.66,4.66,0,0,1-.3-1.61A.77.77,0,0,1,872.48,1161.56Z"/><path class="cls-1" d="M872.48,1161.56a.77.77,0,0,0-.19,0,6.76,6.76,0,0,1,.05-.76l0-.27C872.4,1160.84,872.44,1161.2,872.48,1161.56Z"/><path class="cls-1" d="M866.33,1139.77a27.34,27.34,0,0,1,6,20.71,59,59,0,0,0-3-13.32A67.81,67.81,0,0,0,866.33,1139.77Z"/><path class="cls-1" d="M867.05,1131.28a15.26,15.26,0,0,1,3.29,3.6,54.26,54.26,0,0,1-7.14-.78c-.34-1.12.46-1.45-.42-2.78-.57-.86.65-1.64,1.34-1C865.24,1131.26,865.9,1130.55,867.05,1131.28Z"/><path class="cls-1" d="M869.78,230.31c-1.08,3.63-2.34,7.23-3.75,10.81a2.18,2.18,0,0,0,1.77,2.95q-3.45,6-7.46,11.62c-1.06,1.51,1.23,3.14,2.49,1.92.79-.77,1.58-1.54,2.34-2.34a141.39,141.39,0,0,1-10.06,12.67c-.91,1-2.52-.3-1.86-1.44A196.43,196.43,0,0,0,869.78,230.31Z"/><path class="cls-1" d="M866,875.6c.12,4.64-7.1,4.63-7.2,0l0-1.16a4.11,4.11,0,0,1,5-2.27l2.17.69C865.94,873.78,866,874.69,866,875.6Z"/><path class="cls-1" d="M865.9,872.86l-2.17-.69a4.11,4.11,0,0,0-5,2.27c-.18-6.7-.64-13.37-1.22-20l1.59-.61c3.73-1.46,3.55-7.48-1-7.42q-.75,0-1.47.06c-.72-5.26-1.41-10.9-.09-15.56a.63.63,0,0,1,1-.27c4.39,5.34,5.35,14,6.36,20.69A190.3,190.3,0,0,1,865.9,872.86Z"/><path class="cls-1" d="M865.27,1137.76c.36.65.71,1.33,1.06,2-7.55-9.41-20.74-14.28-32.87-9.3-.88.37-1.46-1.09-.64-1.51,9.35-4.83,20.66-6.24,30.3-1.89a9.8,9.8,0,0,0-5.59,3,.71.71,0,0,0,0,1,9.66,9.66,0,0,0,5.67,3,.36.36,0,0,1,0,.11A26,26,0,0,0,865.27,1137.76Z"/><path class="cls-1" d="M858.13,846.37c4.56-.06,4.74,6,1,7.42l-1.59.61-.19-2.22c-.17-1.81-.44-3.76-.7-5.75Q857.38,846.39,858.13,846.37Z"/><path class="cls-1" d="M857.36,852.18l.19,2.22c-9.79,3.77-19.2,7-27.94,13l-.85-1.22a2.29,2.29,0,0,0,.33-3.55,10.82,10.82,0,0,0-3.21-2.17c8.49-7.28,19.55-13.43,30.78-14.07C856.92,848.42,857.19,850.37,857.36,852.18Z"/><path class="cls-1" d="M856.92,404.68c4.22,28.51-5.8,60.05-31,76-27.79,17.58-62.3,12-93,7.58-32.17-4.64-63.59-4.94-95,4.56-27.3,8.25-54,22.11-75.47,41.28,1.21-2.42,2.35-4.88,3.4-7.36,2.38-2.43,4.83-4.8,7.45-7.09a177.05,177.05,0,0,1,20.25-15A189.1,189.1,0,0,1,687.41,474c16.09-.77,32,1.1,47.91,3.19,30.78,4,67.71,10.36,92.79-12.95a69.35,69.35,0,0,0,21-38.71c2.92-15.81-.3-31.89-7.46-46.18A99.39,99.39,0,0,0,828,358.86c-5.18-5.95-11.37-10.69-16.88-16.27s-9.5-14.55-7.37-21.82a75.51,75.51,0,0,0,11.36-6,2.82,2.82,0,0,1-1.41,3.47c-9.88,5.42-.9,17.21,4.41,22,6.54,5.89,12.93,11.55,18.41,18.51C846.93,372.05,854.42,387.86,856.92,404.68Z"/><path class="cls-2" d="M841.62,379.3c7.16,14.29,10.38,30.37,7.46,46.18a69.35,69.35,0,0,1-21,38.71c-25.08,23.31-62,17-92.79,12.95-15.9-2.09-31.82-4-47.91-3.19a189.1,189.1,0,0,0-93.85,30.66,177.05,177.05,0,0,0-20.25,15c-2.62,2.29-5.07,4.66-7.45,7.09.4-.92.79-1.85,1.16-2.78,6.83-17,9.25-35.16,9.79-53.37.19-6.46.16-12.93.15-19.39,5.41,1.43,11.94,1.41,17.21,1.33a188.1,188.1,0,0,0,21.07-1.67A194.32,194.32,0,0,0,656,441a215.15,215.15,0,0,0,71.2-42.51A175.18,175.18,0,0,0,756.82,364a101.14,101.14,0,0,0,13.43,11.84,94,94,0,0,0,25,12.74c7.49,2.59,19.15,5.58,26.86,2.48a.69.69,0,0,0,.16-1.24c-3.14-1.75-7-2.23-10.38-3.38-4.18-1.43-8.36-2.65-12.46-4.28a92.13,92.13,0,0,1-22.82-13.33,90.87,90.87,0,0,1-17.33-18c-4.92-6.74-7.66-15.81-14.09-21.27a3.6,3.6,0,0,0-2-.8l.07-.73c3.05.28,6.1.52,9.13.69,16.63,1,35.31-1.17,51.28-8-2.13,7.27,2,16.37,7.37,21.82s11.7,10.32,16.88,16.27A99.39,99.39,0,0,1,841.62,379.3Z"/><path class="cls-1" d="M840.91,1101.83c.75,1.09-.89,2.27-1.77,1.38-19.66-19.83-47.06-27-73.61-32.24-23.73-4.66-47.1-10.78-69.33-20.44a270.27,270.27,0,0,1-61.6-37.39c-37.19-29.89-65.86-71.51-82.19-116.17-.37-1,1.37-1.77,1.8-.75a265.39,265.39,0,0,0,43.41,69.39c31.3,35.82,72.66,65.05,117.47,81.13,22.84,8.2,46.86,12.44,70.07,19.43C806.7,1072.66,827.83,1082.85,840.91,1101.83Z"/><path class="cls-1" d="M835.29,286.49c.71-1.31,3-.39,2.43,1a56.53,56.53,0,0,1-22.66,27.23,3.26,3.26,0,0,0-3.84-2.32l-2.39-1.82C819.77,305.59,829.16,297.9,835.29,286.49Z"/><path class="cls-1" d="M828.76,866.22l.85,1.22c-.37.24-.74.5-1.11.77-9.38,6.77-16.77,16.64-22.26,26.73a1.26,1.26,0,0,1-2.3-1,62.31,62.31,0,0,1,15.33-27.13c3.06.61,6.14.86,8.78-.21A3.29,3.29,0,0,0,828.76,866.22Z"/><path class="cls-1" d="M829.09,862.67a2.29,2.29,0,0,1-.33,3.55,3.29,3.29,0,0,1-.71.41c-2.64,1.07-5.72.82-8.78.21,1.47-1.58,3-3.11,4.63-4.59.64-.59,1.31-1.18,2-1.75A10.82,10.82,0,0,1,829.09,862.67Z"/><path class="cls-1" d="M825.88,860.5c-.67.57-1.34,1.16-2,1.75-1.61,1.48-3.16,3-4.63,4.59-2.63-.51-5.24-1.31-7.55-1.76-6-1.18-11.92-2.33-17.85-3.56q-9.43-1.95-18.86-3.93c-4.82-1-9.22-1.32-12.79-4.64a3.66,3.66,0,0,0,3.28-3.43c0-.07,0-.12,0-.18a2.59,2.59,0,0,0,.64-.28c3.52-.32,7,.69,10.81,1.44l17.88,3.43c6.31,1.22,12.6,2.52,18.89,3.8C817.48,858.48,822.2,858.79,825.88,860.5Z"/><path class="cls-1" d="M822.3,389.86a.69.69,0,0,1-.16,1.24c-7.71,3.1-19.37.11-26.86-2.48a94,94,0,0,1-25-12.74A101.14,101.14,0,0,1,756.82,364l1.2-1.84c3.05-4.78-3.64-8.76-7.29-5.32-.34-.42-.66-.86-1-1.29-5.18-7-11.07-15.5-9.62-24.63a2.67,2.67,0,0,1,3.09-2.14,3.6,3.6,0,0,1,2,.8c6.43,5.46,9.17,14.53,14.09,21.27a90.87,90.87,0,0,0,17.33,18,92.13,92.13,0,0,0,22.82,13.33c4.1,1.63,8.28,2.85,12.46,4.28C815.31,387.63,819.16,388.11,822.3,389.86Z"/><path class="cls-1" d="M811.22,312.43a3.26,3.26,0,0,1,3.84,2.32,75.51,75.51,0,0,1-11.36,6,13.11,13.11,0,0,1,6.74-8A3.84,3.84,0,0,1,811.22,312.43Z"/><path class="cls-1" d="M808.83,310.61l2.39,1.82a3.84,3.84,0,0,0-.78.31,13.11,13.11,0,0,0-6.74,8c-16,6.84-34.65,9-51.28,8-3-.17-6.08-.41-9.13-.69-35.86-3.23-71.84-11.87-105.76,5.28-28.93,14.63-51.18,42.08-57.64,74.05C577.33,420.12,577,433,577,445.8a19.07,19.07,0,0,0-2.89.62c-2,.61-1.73,3.11,0,3.83a23.31,23.31,0,0,0,2.89,1c0,6.46,0,12.93-.15,19.39-.54,18.21-3,36.39-9.79,53.37-.37.93-.76,1.86-1.16,2.78-3.89,4-7.54,8.15-11.31,12.42a.58.58,0,0,0-.11.15l-2.05-1.12a125.77,125.77,0,0,0,12.84-35.37c7.74-38.53-5.4-78.8,9.27-116.41A119.81,119.81,0,0,1,638,320.63a117.79,117.79,0,0,1,50.94-9.3c21,.64,41.58,5.09,62.44,6.87C769.94,319.76,791.36,318.61,808.83,310.61Z"/><path class="cls-1" d="M778.83,757.11a2.16,2.16,0,0,1,1.1,2.35,16.34,16.34,0,0,1-7.49-1.33c-1.21-.53-2.67.94-1.52,2q.76.71,1.5,1.32a10.79,10.79,0,0,1-4.51-7.06c-.67-4.09,1.27-7.86,1.61-11.87a16.22,16.22,0,0,0-2.56-9.9c-7.86-12.69-23.91-12.28-37.33-8.76.17-.27.35-.54.52-.82a2.4,2.4,0,0,0-.49-3.33c10.88-5.67,23.4-7.65,34.62-.34a29,29,0,0,1,12,14.91A22,22,0,0,1,777,744.5C776.3,749.3,773.5,754.12,778.83,757.11Z"/><path class="cls-1" d="M772.44,758.13a16.34,16.34,0,0,0,7.49,1.33,2.74,2.74,0,0,1-1.1,1.74,5.37,5.37,0,0,1-6.41.23q-.74-.61-1.5-1.32C769.77,759.07,771.23,757.6,772.44,758.13Z"/><path class="cls-1" d="M768.63,835.48c0,4.6,1.21,9.65-2.08,13.23a2.64,2.64,0,0,1-.4.35l-.63.06c.51-7.15.86-14.27,1.1-21.44.1-2.86,0-5.7,0-8.56a4.92,4.92,0,0,0,1.8-1.67C768.56,823.46,768.59,829.47,768.63,835.48Z"/><path class="cls-1" d="M768.32,813.72a3.17,3.17,0,0,1,.09,3.73c0-.24,0-.48,0-.71C768.37,815.73,768.35,814.73,768.32,813.72Z"/><path class="cls-1" d="M768.4,816.74c0,.23,0,.47,0,.71a4.92,4.92,0,0,1-1.8,1.67c0-.61,0-1.22,0-1.83,0-1.7.11-3.36.1-5l.87.66a4,4,0,0,1,.76.78C768.35,814.73,768.37,815.73,768.4,816.74Z"/><path class="cls-1" d="M768.32,813.72a4,4,0,0,0-.76-.78l-.87-.66a15.56,15.56,0,0,0-.61-4.58.87.87,0,0,0-1.57-.2,19.07,19.07,0,0,0-1,2.58c-.69-.44-1.39-.84-2.1-1.22.12-3.63.29-7.25.62-10.86.42-4.6.26-9.69,2.08-14a.85.85,0,0,1,1.44,0c1.94,4.61,1.7,10.06,2.12,15S768.2,808.82,768.32,813.72Z"/><path class="cls-1" d="M767,1234.78a.58.58,0,0,1,.45,1c-16,8.91-33.72,9.19-50.7,4.94l-.57-1c-1.58-2.49-4.66-4.65-7.69-3a5.59,5.59,0,0,0-1.31,1c-3-1.05-6-2.23-9-3.52-24.89-10.91-44.29-29-61.54-49.61-15.72-18.75-30.1-38.7-47.36-56.11-17.46-17.61-37.63-31.38-61.06-39.7-45.38-16.12-94.15-14.78-141.1-22.92-40.23-7-83.27-18.89-111.73-50.11-21.48-23.58-29.75-54.87-28.4-86.1a1.19,1.19,0,0,0,1.31-.24,50.14,50.14,0,0,0,13.77-20.67c-2.92,18.93-4.6,37.89-.14,57.07,5.29,22.7,18.67,41.48,36.79,55.82,71.8,56.83,170.32,31.58,250.53,66,21.55,9.26,39.51,23.09,55.23,40.38s28.94,36.76,43.94,54.71C677.3,1217.4,719.64,1249.52,767,1234.78Z"/><path class="cls-1" d="M766.69,812.28c0,1.65-.12,3.31-.1,5,0,.61,0,1.22,0,1.83a4.29,4.29,0,0,1-4.85-.39l-.06,0a44.23,44.23,0,0,1,1.76-8.61C764.56,810.75,765.64,811.49,766.69,812.28Z"/><path class="cls-1" d="M766.61,819.12c0,2.86.11,5.7,0,8.56-.24,7.17-.59,14.29-1.1,21.44-.44.07-.88.15-1.32.26a2.22,2.22,0,0,1-1.2-.67c-3.48-3.79-2.11-9.42-2.08-14.27,0-3.16.05-6.3.09-9.46.23-2,.42-4.14.69-6.29l.06,0A4.29,4.29,0,0,0,766.61,819.12Z"/><path class="cls-1" d="M766.08,807.7a15.56,15.56,0,0,1,.61,4.58c-1.05-.79-2.13-1.53-3.23-2.2a19.07,19.07,0,0,1,1-2.58A.87.87,0,0,1,766.08,807.7Z"/><path class="cls-1" d="M765.52,849.12l.63-.06a2.59,2.59,0,0,1-.64.28A1.62,1.62,0,0,0,765.52,849.12Z"/><path class="cls-1" d="M765.52,849.12a1.62,1.62,0,0,1,0,.22,2.53,2.53,0,0,1-1.31,0C764.64,849.27,765.08,849.19,765.52,849.12Z"/><path class="cls-1" d="M765.51,849.34c0,.06,0,.11,0,.18a3.66,3.66,0,0,1-3.28,3.43c-.25-.24-.51-.5-.76-.77a1.24,1.24,0,0,1,.26-1.93,12.67,12.67,0,0,1,2.48-.87A2.53,2.53,0,0,0,765.51,849.34Z"/><path class="cls-1" d="M763,848.71a2.22,2.22,0,0,0,1.2.67,12.67,12.67,0,0,0-2.48.87,1.24,1.24,0,0,0-.26,1.93c.25.27.51.53.76.77-2,.29-4.2-.86-4-3.43q1.05-11.47,2.56-22.87c.07-.54.14-1.1.2-1.67,0,3.16-.06,6.3-.09,9.46C760.89,839.29,759.52,844.92,763,848.71Z"/><path class="cls-1" d="M761.36,808.86c.71.38,1.41.78,2.1,1.22a44.23,44.23,0,0,0-1.76,8.61c-.2-.16-.39-.31-.58-.44l0-1.51Q761.24,812.8,761.36,808.86Z"/><path class="cls-1" d="M761.12,818.25c.19.13.38.28.58.44-.27,2.15-.46,4.3-.69,6.29C761,822.74,761.06,820.5,761.12,818.25Z"/><path class="cls-1" d="M761.36,808.86q-.12,3.93-.21,7.88l0,1.51c-19-14.35-48.07-9.13-62.36,9.19-.8,1-2.26-.28-1.71-1.31a41.5,41.5,0,0,1,8.35-10.74h0c2.82,1.1,4.59-1.28,4.52-3.67A49.68,49.68,0,0,1,761.36,808.86Z"/><path class="cls-1" d="M750.73,356.88c3.65-3.44,10.34.54,7.29,5.32l-1.2,1.84A92.75,92.75,0,0,1,750.73,356.88Z"/><path class="cls-1" d="M750.73,356.88a92.75,92.75,0,0,0,6.09,7.16,175.18,175.18,0,0,1-29.62,34.42A215.15,215.15,0,0,1,656,441a194.32,194.32,0,0,1-40.76,9.9,188.1,188.1,0,0,1-21.07,1.67c-5.27.08-11.8.1-17.21-1.33,0-1.81,0-3.61,0-5.41,3-.44,6.08-.37,9.06-.71,4.34-.52,8.68-.83,13-1.23a205.15,205.15,0,0,0,25.35-4.06A211.73,211.73,0,0,0,672.32,423c30.88-15.24,57.24-37.87,77.79-65.43A4.19,4.19,0,0,1,750.73,356.88Z"/><path class="cls-1" d="M726.59,1267.7c4.82,18.88,6.46,38.77,3.65,58.09-1.88,12.93-5.54,26.91-15.59,35.45a31,31,0,0,1-6.81,4.45.54.54,0,0,1-.65-.83c14.34-14.46,14.65-40.14,13.85-59.23-.88-20.81-6.09-39.76-13.68-59-1.06-2.71-2.24-6.36-.15-8.7,3.15,1.12,6.35,2.07,9.57,2.87C721.55,1248.79,724.3,1258.79,726.59,1267.7Z"/><path class="cls-1" d="M729.66,719.69a2.4,2.4,0,0,1,.49,3.33c-.17.28-.35.55-.52.82a81.64,81.64,0,0,0-8.58,2.74c-.7.26-1-.73-.46-1.11A63.67,63.67,0,0,1,729.66,719.69Z"/><path class="cls-1" d="M725.37,720.23a2.91,2.91,0,0,1,4.29-.54,63.67,63.67,0,0,0-9.07,5.78c-.5.38-.24,1.37.46,1.11a81.64,81.64,0,0,1,8.58-2.74,27.1,27.1,0,0,1-23.78,11.74,3.74,3.74,0,0,1-3.63-3.62c-.07-.88-.16-1.77-.24-2.68.83,1.47,3.38.91,3.76-.69a2.72,2.72,0,0,0,.07-.33l1,.21,2.66,3.49c-.11-1.08-.23-2.19-.35-3.29A19.17,19.17,0,0,0,725.37,720.23Z"/><path class="cls-1" d="M716.21,1239.82l.57,1c-3.22-.8-6.42-1.75-9.57-2.87a5.59,5.59,0,0,1,1.31-1C711.55,1235.17,714.63,1237.33,716.21,1239.82Z"/><path class="cls-1" d="M709.93,811.72c.07,2.39-1.7,4.77-4.52,3.67h0A38.47,38.47,0,0,1,709.93,811.72Z"/><path class="cls-1" d="M709.47,732l-2.66-3.49a20.2,20.2,0,0,0,2.31.2C709.24,729.77,709.36,730.88,709.47,732Z"/><path class="cls-1" d="M708.32,808.49a4,4,0,0,1,1.61,3.23,38.47,38.47,0,0,0-4.53,3.67c-5.29-2.08-9.88-5.52-14.12-9.27-3.5-3.11-6.94-6.22-8-10.54a2.88,2.88,0,0,0,3.53-1.68c.21-.45.43-.9.63-1.36,3.16,1.66,5.35,4.35,8.26,6.93C699.62,803,704.09,805.45,708.32,808.49Z"/><path class="cls-1" d="M709.12,728.67a20.2,20.2,0,0,1-2.31-.2l-1-.21c2.35-10.62-3.34-25.51-12.22-31.76-7.29-5.12-18.83-6.29-24.42,1.64-1.38,1.17-2.74,2.42-4.06,3.68a37.83,37.83,0,0,1-7.36,5,3,3,0,0,0-3.69-1.12,4.58,4.58,0,0,0,.31-.63c5.69-4.43,10.08-10.63,16.48-14,5.76-3.06,12.46-2.73,18.32-.09C704.1,697.7,707.48,713.87,709.12,728.67Z"/><path class="cls-1" d="M693.59,696.5c8.88,6.25,14.57,21.14,12.22,31.76a2.72,2.72,0,0,1-.07.33c-.38,1.6-2.93,2.16-3.76.69-1.25-13-3.93-29.12-17.89-33.84a13.84,13.84,0,0,0-6.43-.72,1.76,1.76,0,0,0-2.74-.89,56.67,56.67,0,0,0-5.75,4.31C674.76,690.21,686.3,691.38,693.59,696.5Z"/><path class="cls-1" d="M702,729.28a.64.64,0,0,1-.1-.18c-3.68-8.49-2.7-18.17-9.53-25.41a18.59,18.59,0,0,0-15.93-5.5l1-1.16a2.22,2.22,0,0,0,.28-2.31,13.84,13.84,0,0,1,6.43.72C698.05,700.16,700.73,716.27,702,729.28Z"/><path class="cls-1" d="M697.07,756.1c.78,12.32-4.42,25.39-9.62,36.44a13,13,0,0,0-3.22-1.18,1,1,0,0,0-1.26,1,11.33,11.33,0,0,0,.32,3.24,3.74,3.74,0,0,1-2.56-5.24,189.13,189.13,0,0,0,7.15-17.7,22.5,22.5,0,0,0,5.72-11,.76.76,0,0,0-1.1-.84q1.15-2.68,2.47-5.27C695.5,754.46,697,755.06,697.07,756.1Z"/><path class="cls-1" d="M692.5,760.81a.76.76,0,0,1,1.1.84,22.5,22.5,0,0,1-5.72,11C689.35,768.66,690.82,764.68,692.5,760.81Z"/><path class="cls-1" d="M692.34,760.92a.91.91,0,0,1,.16-.11c-1.68,3.87-3.15,7.85-4.62,11.83A35.71,35.71,0,0,1,675.13,781a3.28,3.28,0,0,1-3.25-.86,30.11,30.11,0,0,0-13.59-7.59l.61-2.22a3.81,3.81,0,0,0,4.64-3.3A34,34,0,0,1,675,773.87c-.54.26-1.07.48-1.63.7l3.26.85c-.52-.53-1.07-1-1.63-1.55C681.59,770.87,687.07,765.8,692.34,760.92Z"/><path class="cls-1" d="M687.45,792.54c-.2.46-.42.91-.63,1.36a2.88,2.88,0,0,1-3.53,1.68,11.33,11.33,0,0,1-.32-3.24,1,1,0,0,1,1.26-1A13,13,0,0,1,687.45,792.54Z"/><path class="cls-1" d="M675.88,656.63c2.46-.32,4.46,2.64,3,4.64-4.79.39-9.56,1-14.29,1.74a26.27,26.27,0,0,1,10.92-6.31Z"/><path class="cls-1" d="M678.89,661.27a3.89,3.89,0,0,1-.43.48c-7.48,6.75-14.7,11.89-19,21.41a39,39,0,0,0-1.79,4.73l-.21-.06a8.88,8.88,0,0,0-.29-6.54c-.76-1.66-3.13-1.67-4.3-.56l-.28.28c.23-.52.43-1,.63-1.49A49.84,49.84,0,0,1,664.6,663C669.33,662.23,674.1,661.66,678.89,661.27Z"/><path class="cls-1" d="M677.66,694.72a2.22,2.22,0,0,1-.28,2.31l-1,1.16a16.33,16.33,0,0,0-6.65,2.44c-.83.55-1.81-.51-1.34-1.34l.15-.25C671.37,696.93,674.27,695.16,677.66,694.72Z"/><path class="cls-1" d="M676.61,775.42l-3.26-.85c.56-.22,1.09-.44,1.63-.7C675.54,774.37,676.09,774.89,676.61,775.42Z"/><path class="cls-1" d="M674.92,693.83a1.76,1.76,0,0,1,2.74.89c-3.39.44-6.29,2.21-9.08,4.32.19-.31.38-.61.59-.9A56.67,56.67,0,0,1,674.92,693.83Z"/><path class="cls-1" d="M675.61,655.11l.27,1.52-.36.07A26.27,26.27,0,0,0,664.6,663a158.12,158.12,0,0,0-26.68,6.7.73.73,0,0,1-.56-1.33c10.12-5.16,20.18-9.36,31.27-11.87C670.94,656,673.27,655.52,675.61,655.11Z"/><path class="cls-1" d="M669.77,700.63a16.33,16.33,0,0,1,6.65-2.44c-4.81,5.53-11.25,10.34-16.9,14.86-3.4,2.73-6.88,5.41-10.31,8.15,2.83-3.32,5.66-6.66,8.5-10a3.28,3.28,0,0,0,.78-2.85c2.13-2.15,4.33-4.4,6.62-6.57,1.15-.94,2.3-1.88,3.47-2.78l-.15.25C668,700.12,668.94,701.18,669.77,700.63Z"/><path class="cls-1" d="M669.17,698.14c-.21.29-.4.59-.59.9-1.17.9-2.32,1.84-3.47,2.78C666.43,700.56,667.79,699.31,669.17,698.14Z"/><path class="cls-1" d="M662.5,764.38a3.28,3.28,0,0,1,1,2.67,29.66,29.66,0,0,0-10.11-1.75c-6-6.28-11.58-12.93-15.85-20.42a1.94,1.94,0,0,0,1.68-1.55,17.49,17.49,0,0,0,.34-2.59C647.58,748.25,654.65,756.71,662.5,764.38Z"/><path class="cls-1" d="M663.54,767.05a3.81,3.81,0,0,1-4.64,3.3,3.51,3.51,0,0,1-1.46-.91c-1.35-1.37-2.69-2.74-4-4.14A29.66,29.66,0,0,1,663.54,767.05Z"/><path class="cls-1" d="M658.9,770.35l-.61,2.22a37.51,37.51,0,0,0-5.55-1.05c-7.46-.87-13.08,2.64-19.91,4.62A1.68,1.68,0,0,1,631,773.7c4.65-6.88,14.53-8.28,22.22-8.4h.26c1.32,1.4,2.66,2.77,4,4.14A3.51,3.51,0,0,0,658.9,770.35Z"/><path class="cls-1" d="M658.49,708.39a3.28,3.28,0,0,1-.78,2.85c-2.84,3.3-5.67,6.64-8.5,10-2.88,2.27-5.73,4.57-8.49,6.94-.6.53-1.48-.32-.88-.89,6-5.69,11.72-11.88,17.58-17.77Z"/><path class="cls-1" d="M658.49,708.39l-1.07,1.09c-5.86,5.89-11.56,12.08-17.58,17.77-.6.57.28,1.42.88.89,2.76-2.37,5.61-4.67,8.49-6.94-3.54,4.13-7.1,8.24-10.77,12.23a15.2,15.2,0,0,0-1-2c-.16,1.23-.31,2.46-.47,3.7l1.51-1.65a15.91,15.91,0,0,1,1.16,7.31c-1.38-1.32-2.8-2.59-4.25-3.84a.89.89,0,0,0-1.32.27,11.55,11.55,0,0,0-1.4-2.09,3.17,3.17,0,0,1,0-4.31c6.21-7.9,12.85-15.44,19.38-23.06a.77.77,0,0,0,.87.59,16.12,16.12,0,0,0,4.87-1.47A3.58,3.58,0,0,1,658.49,708.39Z"/><path class="cls-1" d="M657.17,681.29a8.88,8.88,0,0,1,.29,6.54,18.61,18.61,0,0,1-5.26,7.76,22.62,22.62,0,0,1-3.33,2.55c-.29-5.76,1.85-12.5,3.72-17.13l.28-.28C654,679.62,656.41,679.63,657.17,681.29Z"/><path class="cls-1" d="M657.46,687.83l.21.06a44.59,44.59,0,0,0-1.93,10.2,20,20,0,0,1-1.37,7c-.63.5-1.3,1-2,1.44,0,0,0,0,0,0-2.34-2.06-3.32-5.08-3.48-8.42a22.62,22.62,0,0,0,3.33-2.55A18.61,18.61,0,0,0,657.46,687.83Z"/><path class="cls-1" d="M654.06,705.71a3,3,0,0,1,3.69,1.12,16.12,16.12,0,0,1-4.87,1.47.77.77,0,0,1-.87-.59c.25-.28.49-.57.73-.85a.6.6,0,0,0,.78-.23A7.34,7.34,0,0,0,654.06,705.71Z"/><path class="cls-1" d="M654.37,705.08a4.58,4.58,0,0,1-.31.63,3.19,3.19,0,0,0-1,.84l-.27.31-.17-.11-.22-.19s0,0,0,0C653.07,706.06,653.74,705.58,654.37,705.08Z"/><path class="cls-1" d="M654.06,705.71a7.34,7.34,0,0,1-.54.92.6.6,0,0,1-.78.23l.27-.31A3.19,3.19,0,0,1,654.06,705.71Z"/><path class="cls-1" d="M652.74,706.86c-.24.28-.48.57-.73.85a1.08,1.08,0,0,1,.34-1.15l.22.19Z"/><path class="cls-1" d="M648.25,687.48c1.74-2,2.5-4.56,4.34-6.47-1.87,4.63-4,11.37-3.72,17.13a30.39,30.39,0,0,1-14.17,4.39c-8.3.6-16.63-1.64-24.61-3.56q-12.55-3-25-6.28c-17-4.45-33.87-9.22-50.64-14.44-8.3-2.58-16.69-5.19-25-8.06-2.64-1.94-5.36-3.79-8.13-5.53a65.91,65.91,0,0,0,9.21.55C532,671,553.34,677.55,574.93,682.8c15,3.66,30.06,7.19,45.2,10.1,7.14,1.38,15.11,2.52,21.93-.74A18.82,18.82,0,0,0,648.25,687.48Z"/><path class="cls-1" d="M639.6,740.74a17.49,17.49,0,0,1-.34,2.59,1.94,1.94,0,0,1-1.68,1.55c-1-1.75-1.92-3.55-2.74-5.39a7.92,7.92,0,0,0-.81-2.32.89.89,0,0,1,1.32-.27C636.8,738.15,638.22,739.42,639.6,740.74Z"/><path class="cls-1" d="M638.44,733.43l-1.51,1.65c.16-1.24.31-2.47.47-3.7A15.2,15.2,0,0,1,638.44,733.43Z"/><path class="cls-1" d="M637.58,744.88a2.15,2.15,0,0,1-2.67-2.13,12.05,12.05,0,0,0-.07-3.26C635.66,741.33,636.59,743.13,637.58,744.88Z"/><path class="cls-1" d="M634.84,739.49c-.28-.6-.54-1.21-.8-1.83a.64.64,0,0,1,0-.49A7.92,7.92,0,0,1,634.84,739.49Z"/><path class="cls-1" d="M577,445.8c0,1.8,0,3.6,0,5.41a23.31,23.31,0,0,1-2.89-1c-1.73-.72-2-3.22,0-3.83A19.07,19.07,0,0,1,577,445.8Z"/><path class="cls-1" d="M554.55,539.17c3.77-4.27,7.42-8.43,11.31-12.42-1.05,2.48-2.19,4.94-3.4,7.36-2.29,2-4.51,4.15-6.67,6.3-.76.78-1.85-.27-1.35-1.09A.58.58,0,0,1,554.55,539.17Z"/><path class="cls-1" d="M555.79,540.41c2.16-2.15,4.38-4.26,6.67-6.3-12.86,25.93-33.83,48.43-60.28,60.45-2.22,1-4.14-2.06-1.95-3.33,22.11-13,40.27-31.11,52.16-53l2.05,1.12C553.94,540.14,555,541.19,555.79,540.41Z"/><path class="cls-1" d="M485.79,758.29c20.24,21.73,30.28,54.17,26.9,83.52a.79.79,0,0,1-1.57,0c-.86-14.41-3.92-29-9.88-42.16-5.6-12.36-14.16-23.56-23.61-33.2-9.74-9.94-21.36-16.35-33-23.7-2.85-1.8-5.61-4-8.63-5.53-3.31-1.66-7.17-2.49-10.76-3.31-6.51-1.52-13.92-1.53-20.14-4a1.4,1.4,0,0,1,0-2.68c6.69-2.12,15-.31,21.67,1.12,7.22,1.56,14.85,2.73,21.91,4.76C462.92,737.21,475.84,747.62,485.79,758.29Z"/><path class="cls-1" d="M510.52,665.21a65.91,65.91,0,0,1-9.21-.55Q498.7,663,496,661.49,503.28,663.26,510.52,665.21Z"/><path class="cls-1" d="M501.31,664.66c2.77,1.74,5.49,3.59,8.13,5.53-6.27-2.17-12.47-4.48-18.54-7.05-.83-.53-1.67-1-2.52-1.54A62,62,0,0,0,501.31,664.66Z"/><path class="cls-1" d="M496,661.49q2.69,1.51,5.29,3.17a62,62,0,0,1-12.93-3.06c-.3-.2-.6-.38-.92-.56a1.68,1.68,0,0,1-.88-1.77Q491.32,660.32,496,661.49Z"/><path class="cls-1" d="M489.31,657.87c2.28,1.14,4.51,2.34,6.71,3.62q-4.69-1.17-9.44-2.22a1.9,1.9,0,0,1,2.28-1.56A2,2,0,0,1,489.31,657.87Z"/><path class="cls-1" d="M488.38,661.6c.85.5,1.69,1,2.52,1.54-1.81-.76-3.63-1.56-5.42-2.37a.7.7,0,0,1-.43-.47C486.16,660.78,487.26,661.2,488.38,661.6Z"/><path class="cls-1" d="M488.91,657.54l-.05.17a1.9,1.9,0,0,0-2.28,1.56l-.42-.1a1,1,0,0,0-1.11,1.13,59.07,59.07,0,0,1-7.17-3.57c-1.79-1-.23-3.58,1.6-2.73A62,62,0,0,0,488.91,657.54Z"/><path class="cls-1" d="M487.46,661c.32.18.62.36.92.56-1.12-.4-2.22-.82-3.33-1.3a1,1,0,0,1,1.11-1.13l.42.1A1.68,1.68,0,0,0,487.46,661Z"/><path class="cls-1" d="M476.26,1062c.45.16.42.94-.12.89-22.39-2.24-43.43-15.24-59.75-30.14a146.44,146.44,0,0,1-38-56.3c-8-21.2-8.49-43.39-5.63-65.64,3.13-24.5,9.26-52.26-1.08-75.93-9.56-21.9-31.38-35.94-45.07-55-12.89-18-21.47-39.34-25.5-61.06a146.76,146.76,0,0,1,2.57-65c3.3-12.05,8.57-23.38,13.86-34.65S328,596.32,329,583.94c.94-11.53-.2-24.13-8.67-32.83-8.06-8.25-19.27-12.56-27.8-20.31-15.94-14.51-26.42-37-24.54-58.76a2.3,2.3,0,0,1,4.59,0c.68,13.38,3.74,26.29,10.74,37.82s16.7,19.67,28.23,26.4c10.49,6.13,19.42,12.74,24.3,24.27,4.77,11.24,4.64,23.58,1.79,35.29-5.81,23.92-21.09,44.2-26.72,68.3a143,143,0,0,0,.46,65.29,132.2,132.2,0,0,0,30.81,58.06c15.71,17.2,34.15,31.18,42,54,7.92,23.11,1.12,49.65-1.93,73-2.85,22-2.34,43,4.72,64.24,6.66,20,18.84,38,34.25,52.36C437.16,1046,456,1054.65,476.26,1062Z"/><path class="cls-1" d="M406.59,313.44a.25.25,0,0,1,.19.46,117.47,117.47,0,0,1-18,9.36c-.9.37-1.82.72-2.76,1.06-7.75,2.84-15.66,5.29-23.47,7.94-14.24,4.8-28.35,10-42.22,15.79A291,291,0,0,1,358,326.71l2.82-.86c7.59-2.27,15.2-4.48,22.79-6.73S398.89,315.31,406.59,313.44Z"/><path class="cls-1" d="M388.82,323.26l.73,1.82C365.85,334.45,343,345.59,321.9,360a203.36,203.36,0,0,0-55.85,56.94c-1.32,2-5.12.7-4.1-1.72,12-28.45,33.27-50.09,58.42-67.17,13.87-5.81,28-11,42.22-15.79,7.81-2.65,15.72-5.1,23.47-7.94C387,324,387.92,323.63,388.82,323.26Z"/><path class="cls-1" d="M358,326.71a291,291,0,0,0-37.63,21.34L318,349a625.13,625.13,0,0,0-74.4,37.66c-23.18,13.76-46.52,28.64-66.27,47.1C158,451.89,142,474.92,138.12,501.64c-1.65,11.28-1.23,23.43,3.94,33.8a32.69,32.69,0,0,0,9.38,11.94c3.87,2.85,8.74,3.83,13.28,5.08a4.23,4.23,0,0,1,1.4.66c-2.18-.18-4.38-.48-6.63-.89a4.7,4.7,0,0,0-2.79,9c-9-1.12-17.2-9.12-21.84-16.54-7.26-11.61-9.18-25.58-8-39,5.28-60.13,60.9-97.71,108.46-125.38a585.11,585.11,0,0,1,82.32-39.55C330.92,335.56,344.38,330.85,358,326.71Z"/><path class="cls-1" d="M264.4,874.36a4.54,4.54,0,0,1,2.55,5.07c-.38,2.56-.79,5.11-1.21,7.67A67,67,0,0,0,264.4,874.36Z"/><path class="cls-1" d="M265.74,887.13a62.24,62.24,0,0,1-3.61,21.79C263.25,901.66,264.54,894.4,265.74,887.13Z"/><path class="cls-1" d="M265.74,887.1v0c-1.2,7.27-2.49,14.53-3.61,21.79a50.14,50.14,0,0,1-13.77,20.67,1.19,1.19,0,0,1-1.31.24c0-.86.09-1.72.14-2.58,11-13.09,12.93-29.66,9.47-45.53.56-1.56,1.15-3.1,1.75-4.64a4.4,4.4,0,0,1,6-2.72A67,67,0,0,1,265.74,887.1Z"/><path class="cls-1" d="M264.4,874.36a4.4,4.4,0,0,0-6,2.72c-.6,1.54-1.19,3.08-1.75,4.64a86.37,86.37,0,0,0-15.6-33.24c-17.49-23-43.31-37.6-65.76-55.07-22-17.15-39.88-37.57-48.34-64.62-8.39-26.74-7.72-55.6-2-82.79a301.11,301.11,0,0,1,14-45.85c5.16-13.42,11.57-26,17.9-38.86l.06,0a35.6,35.6,0,0,0,7.52,1.9c-6.23,15.64-12.3,31.44-18,47.27-6.09,16.74-11.15,34-13.62,51.67-3.92,28.07-1.23,58.33,12.71,83.45,14.19,25.55,39.14,41.63,62.09,58.52,21.82,16,44.63,34.59,54.15,60.91A63.75,63.75,0,0,1,264.4,874.36Z"/><path class="cls-1" d="M256.66,881.72c3.46,15.87,1.56,32.44-9.47,45.53A163.85,163.85,0,0,1,256.66,881.72Z"/><path class="cls-1" d="M246.66,927.88c.18-.2.36-.41.53-.63-.05.86-.09,1.72-.14,2.58A1.22,1.22,0,0,1,246.66,927.88Z"/><path class="cls-1" d="M237.68,473.86c.2-.86,1.44-.48,1.31.37-3.59,23.4-7.93,49-24.13,67.51-11.69,13.35-31.89,24.15-50.35,21.47.42-1.06.84-2.12,1.27-3.19a3.59,3.59,0,0,0,.14-.43c2.06-1.63,2.34-4.9.2-6.47a45.42,45.42,0,0,0,21.54-3.06A64.37,64.37,0,0,0,211,533.38C225.8,517,233.13,495.2,237.68,473.86Z"/><path class="cls-1" d="M166.12,553.12c2.14,1.57,1.86,4.84-.2,6.47.94-3.66-5.15-6.07-6.95-2.43-.66,1.36-1.33,2.71-2,4.07l-.27,0a4.7,4.7,0,0,1,2.79-9C161.74,552.64,163.94,552.94,166.12,553.12Z"/><path class="cls-1" d="M159,557.16c1.8-3.64,7.89-1.23,6.95,2.43a4.55,4.55,0,0,1-1.2.68,16.87,16.87,0,0,1-7.75,1C157.64,559.87,158.31,558.52,159,557.16Z"/><path class="cls-1" d="M165.92,559.59a3.59,3.59,0,0,1-.14.43c-.43,1.07-.85,2.13-1.27,3.19a35.6,35.6,0,0,1-7.52-1.9l-.06,0a.07.07,0,0,0,0-.06,16.87,16.87,0,0,0,7.75-1A4.55,4.55,0,0,0,165.92,559.59Z"/><path class="cls-1" d="M157,561.23a.07.07,0,0,1,0,.06l-.23-.1Z"/></g></svg>
