<?xml version="1.0" standalone="no"?>
<!DOCTYPE svg PUBLIC "-//W3C//DTD SVG 1.1//EN" "http://www.w3.org/Graphics/SVG/1.1/DTD/svg11.dtd" >
<svg xmlns="http://www.w3.org/2000/svg" xmlns:xlink="http://www.w3.org/1999/xlink" version="1.1">
<metadata></metadata>
<defs>
<font id="hella_vetticamedium" horiz-adv-x="18" >
<font-face units-per-em="2048" ascent="1638" descent="-410" />
<missing-glyph horiz-adv-x="860" />
<glyph horiz-adv-x="0" />
<glyph unicode="&#xd;" horiz-adv-x="681" />
<glyph unicode=" "  horiz-adv-x="860" />
<glyph unicode="&#x09;" horiz-adv-x="860" />
<glyph unicode="&#xa0;" horiz-adv-x="860" />
<glyph unicode="!" horiz-adv-x="231" d="M23 514q-7 50 16 66q16 10 57 14t49 -4q8 -6 0 -66l-6 -61h-114zM30 1465.5q11 11.5 72 21.5q4 2 15 4q18 2 26.5 4t20.5 2t17 1t12.5 -4t8.5 -7t5 -13.5t4 -17.5t1 -24.5t1 -30.5v-41v-25q-2 -166 -18 -252q-14 -96 -47 -229t-42 -133q-14 0 -36 321q-14 203 -33 301 q-18 111 -7 122.5z" />
<glyph unicode="&#x22;" />
<glyph unicode="#" horiz-adv-x="843" d="M23 866q-8 10 10 45q12 25 27.5 30t74.5 9l84 4l25 103q25 102 17.5 109.5t-85.5 17.5q-51 6 -66.5 12t-19.5 21q-2 29 14 49q12 16 27.5 18t69.5 -8q80 -14 90 -4q8 8 43 153q31 136 47 179q4 14 10 21t16.5 10t28.5 3q41 0 41 -8q0 -2 -23.5 -90t-46 -177t-18.5 -93 q12 -10 88 -6h23q47 2 59 22.5t43 138.5q10 39 14 60l41 153h41q33 0 38 -7t5 -52q0 -57 -36 -190q-39 -127 -39 -148q0 -16 75 -16q61 0 75.5 -10.5t2.5 -43.5q-8 -20 -22.5 -24t-71.5 0l-84 4l-20 -47q-18 -43 -27 -88l-6 -43l80 -2q55 -4 67.5 -8.5t7.5 -20.5 q-8 -49 -31.5 -65.5t-82.5 -16.5q-76 0 -82 -14q-2 -4 -50 -157.5t-51 -156.5q-10 -14 -43 19l-34 33l37 129q35 129 28 143q-6 16 -80.5 16t-85.5 -16q-12 -20 -43 -135q-20 -76 -31.5 -98.5t-27.5 -24.5q-39 -6 -42 17.5t21 107.5q31 111 31 121q0 16 -72 16t-81 6z M299 954q8 -8 64.5 -6t80.5 13q18 6 30.5 24.5t25.5 65.5q24 78 16 86q-6 8 -84 18q-80 8 -86 -8q-16 -43 -33.5 -114.5t-13.5 -78.5z" />
<glyph unicode="$" horiz-adv-x="704" d="M20 838q0 31 28 63.5t52 32.5q20 0 26.5 -10.5t10.5 -53.5q10 -68 31 -98q23 -31 65.5 -60.5t55.5 -23.5q14 4 14 197v192l-113 58q-53 27 -76.5 42t-38 30.5t-26.5 41.5q-41 82 -18.5 177t100.5 165l53 47h142q102 0 127.5 -5t58.5 -31q47 -39 80 -102.5t29 -108.5 q0 -16 -2.5 -24.5t-7.5 -14.5t-11 -7.5t-18 -1.5q-18 0 -26.5 4.5t-13.5 15.5t-14 40q-23 94 -96 129q-35 20 -41 2q-6 -14 -4 -197l4 -180l62 -18q113 -33 173 -101.5t60 -167.5q0 -29 -8 -59.5t-21.5 -56t-33 -47t-41.5 -33.5q-39 -18 -121 -39l-82 -21l-6 -100 q-2 -37 -4 -54.5t-6.5 -29.5t-8.5 -14t-14 -2q-16 0 -21.5 16t-9.5 82l-6 100l-70 17q-66 16 -114 49q-18 12 -37 31.5t-32 42t-21.5 45t-8.5 41.5zM178 1419q-45 -100 12 -168q27 -31 66 -48t49 -3q6 12 -4 170t-16 162q-12 6 -52 -37t-55 -76zM383 713q0 -27 39 -8 q20 10 37 26q57 57 57 130t-59 132q-49 51 -60 37q-12 -16 -12 -151q0 -162 -2 -166z" />
<glyph unicode="%" horiz-adv-x="1146" d="M30.5 1211.5q24.5 74.5 98.5 107.5q72 31 151.5 8.5t118.5 -84.5q29 -47 34 -112.5t-17 -106.5q-33 -66 -117 -89.5t-156 11.5q-76 37 -106.5 114t-6 151.5zM123 1155q0 -98 102 -115q96 -16 109 103q4 41 -0.5 56.5t-24.5 33.5q-74 70 -145 10q-25 -20 -33 -36.5 t-8 -51.5zM223 428q0 4 53 51q49 45 85 102.5t171 309.5q109 205 150 285.5t55.5 122.5t14.5 83q0 66 8 72q12 12 93 3t95 -25q8 -6 -80 -101q-78 -80 -152.5 -202.5t-205.5 -383.5q-125 -246 -131 -299q-4 -35 -10.5 -43t-24.5 -4q-121 20 -121 29zM678 643q-2 61 3 80.5 t34 60.5q43 55 100 86q49 25 90 26t92 -24q90 -41 120 -122.5t-13 -176.5q-51 -111 -197 -124q-78 -6 -125 11t-72.5 61t-31.5 122zM754 692.5q-2 -16.5 2 -37.5q6 -55 44 -90t83 -41t88 18.5t59 75.5q33 113 -53 156q-106 55 -184 -22q-20 -20 -28.5 -31.5t-10.5 -28z" />
<glyph unicode="&#x26;" />
<glyph unicode="(" horiz-adv-x="276" d="M23 846q8 180 59.5 357t110.5 245q53 51 63 35q0 -6 -51 -111q-51 -104 -82 -229q-16 -57 -22.5 -96t-9.5 -85.5t-3 -127.5q0 -117 6 -171.5t27 -134.5q35 -123 90 -239q55 -115 45 -125q-14 -14 -48 8.5t-56 60.5q-68 117 -103 286t-26 327z" />
<glyph unicode=")" horiz-adv-x="294" d="M20 1548q0 61 64 -24q43 -59 92 -165t74 -192q18 -66 23.5 -119t2.5 -188q0 -141 -5 -191.5t-27 -127.5q-35 -113 -86.5 -211.5t-73.5 -98.5q-76 0 -6 99q86 131 120.5 378.5t-8.5 446.5q-16 80 -58 178.5t-81 149.5q-31 40 -31 65z" />
<glyph unicode="*" horiz-adv-x="446" d="M20 1174q2 31 23 49q12 12 22.5 12t38.5 -14q43 -20 50 -13q8 8 8 80v76l41 -4q31 -4 36 -13.5t9 -66.5q4 -74 14 -86q8 -8 74 18q53 23 69.5 18t22.5 -44q4 -27 -23.5 -45.5t-74.5 -18.5q-41 0 -41 -17.5t37 -62.5q33 -43 34.5 -61t-24.5 -33q-23 -14 -33 -5t-47 77 q-37 70 -49 74q-6 2 -22.5 -22.5t-32 -54.5t-31 -56.5t-19.5 -26.5q-8 0 -39 24l-30 25l39 47q39 49 38 69.5t-44 30.5q-20 6 -30.5 10.5t-14 11.5t-1.5 22z" />
<glyph unicode="+" horiz-adv-x="884" d="M20.5 731q-6.5 137 122.5 279l66 71l-33 93q-31 94 -24 161q6 63 36.5 118t71.5 75q72 37 186 -19q111 -51 105 -165.5t-125 -221.5q-33 -29 -45 -42t-15.5 -25.5t5.5 -22.5q14 -31 72.5 -106.5t91.5 -108.5q35 -31 49 -17.5t30 89.5q16 70 -2 155q-25 135 11 130 q20 -4 51 -64q27 -53 27.5 -140t-25.5 -161q-20 -55 -27 -84q0 -12 90 -76.5t109 -64.5q16 0 18 -9q2 -12 -32 -18q-4 -2 -11 -2q-47 -2 -73.5 2t-47 15.5t-49.5 37.5l-51 52l-53 -52q-104 -102 -240 -112q-45 -4 -72.5 1t-70.5 27q-139 68 -145.5 205zM112 757 q3 -93 99 -145q94 -51 195 -6q27 12 58.5 34t52 42t20.5 29q0 12 -136.5 149t-142.5 137t-57 -53q-92 -94 -89 -187zM248 1346q0 -63 22 -125q20 -57 45 -57.5t68 57.5q39 53 43 111.5t-30 89t-60.5 33.5t-52.5 -19q-16 -10 -22.5 -20.5t-9.5 -26t-3 -43.5z" />
<glyph unicode="," />
<glyph unicode="-" horiz-adv-x="620" d="M20 635q0 14 39 70q45 66 94.5 177t73.5 201q27 111 35 125q14 20 92 -4q14 -4 35 -96q47 -207 164 -385q57 -88 49 -94q-16 -16 -45 -6t-51 39q-29 41 -86.5 155.5t-85.5 190.5q-27 78 -36 77.5t-32 -84.5q-16 -68 -66 -191.5t-73 -160.5q-18 -29 -62.5 -28.5 t-44.5 14.5z" />
<glyph unicode="." />
<glyph unicode="/" />
<glyph unicode="0" horiz-adv-x="708" d="M20 922q0 150 14.5 229.5t53.5 151.5q16 31 45 63.5t64.5 60t70.5 41.5q49 23 125 16t123 -38q45 -29 85 -88.5t61 -126.5q20 -63 26 -210t-6 -216q-29 -150 -120 -236t-222 -86q-94 0 -171 51.5t-120 143.5q-14 29 -19 54.5t-7.5 64.5t-2.5 125zM172 948 q0 -129 6 -190.5t23.5 -94t56.5 -57.5q59 -35 140 -18.5t122 71.5q29 39 39 143.5t-2 239.5q-12 131 -34.5 196.5t-67.5 98.5q-57 39 -113.5 30t-103.5 -64q-43 -53 -54.5 -115t-11.5 -240z" />
<glyph unicode="1" horiz-adv-x="382" d="M20 1237q2 18 12.5 24.5t43.5 6.5q53 2 86 24q31 18 57.5 59t26.5 68q0 61 73 54l46 -5l-3 -264q-6 -270 -12 -491l-8 -228l-35 -6q-39 -6 -47 6q-6 16 -12 361q-6 350 -10 362q-4 14 -52 -10q-57 -33 -115.5 -24.5t-50.5 63.5z" />
<glyph unicode="2" horiz-adv-x="743" d="M23 496q-8 8 13 96t40 125q53 106 262 217q213 111 242 223q25 88 -29.5 158.5t-144.5 70.5q-72 0 -129.5 -49t-83.5 -129q-14 -45 -32 -53t-63 10q-41 18 -43 41t29 86q53 115 164 168q45 23 124 27t136 -14q47 -12 104 -64q102 -90 93 -240q-6 -98 -50.5 -147 t-191.5 -127q-131 -68 -186.5 -113t-83.5 -104l-7 -14q-27 -51 -12 -64q18 -14 215 -14h2h2h2h2h4h2h3h2h2h2h2h2h2h2h2h2h2h2h2h2h2h2h2h2h2l4 2l279 2l-4 -58q-2 -55 -7 -63t-85 4q-74 10 -340 14q-256 2 -266 9z" />
<glyph unicode="3" horiz-adv-x="708" d="M20 766q-2 25 5.5 32t40.5 15q49 12 65 1t25 -64q10 -94 65 -133t164 -31q100 8 146.5 94t-7.5 166q-25 37 -48 56.5t-52 29.5t-68 10q-35 0 -47 2t-17 8t-7 27q-12 82 51 82q49 0 108.5 22.5t73.5 46.5q20 29 21 87q0 33 -7.5 53t-31.5 49q-51 57 -127 62t-142 -46 q-29 -23 -54 -74t-27 -83q0 -57 -87 -4q-35 23 -33.5 46t42.5 91q63 106 174 145q49 18 122.5 18.5t116.5 -18.5q53 -23 81 -54.5t44 -86.5q37 -127 -45 -232l-37 -45l54 -45q109 -88 108 -225q0 -45 -14 -90t-38 -82t-56.5 -63.5t-69.5 -36.5q-55 -16 -172 -12.5t-160 22.5 q-68 31 -108.5 98.5t-51.5 161.5z" />
<glyph unicode="4" horiz-adv-x="729" d="M20 799v75l177 234q176 234 221 328l45 90q66 -2 129 -6v-693l61 -28q25 -12 37 -20.5t16.5 -17.5t4.5 -26q0 -37 -10.5 -41t-53.5 11q-49 16 -63 8q-12 -8 -9 -142l5 -133h-136q-2 152 -2 301l-86 4q-84 4 -198 -16q-117 -18 -125 -12q-12 8 -13 84zM162 840q2 -2 147 4 l146 10l2 190q2 193 -8 193t-72 -90q-61 -96 -139 -199q-80 -104 -76 -108z" />
<glyph unicode="5" horiz-adv-x="710" d="M27 709q12 12 75 18l64 10l8 -41q10 -53 68.5 -89t134.5 -36q47 0 99 31t77 74q41 68 28.5 140.5t-71.5 121.5q-18 16 -47 30.5t-55.5 20.5t-40.5 2q-18 -6 -50 -10q-37 -10 -86 -55l-49 -45l-53 22q-59 27 -71.5 42.5t-0.5 47.5q20 55 44 166t28 189l10 104l156 4 q158 6 246 29q88 25 100 22q12 -4 16 -61t-18 -70q-76 -39 -285 -51l-127 -6l-26 -137q-31 -158 -8 -146q4 2 8 13q6 10 34.5 23t64.5 25.5t65 16.5q84 14 171 -28t128 -115q16 -33 22 -65t6 -99q0 -70 -7 -100.5t-32 -79.5q-100 -195 -336 -181q-141 12 -239 125 q-35 39 -50.5 81t-0.5 57z" />
<glyph unicode="6" horiz-adv-x="727" d="M27 1010q23 176 80 266t174 131q100 37 199.5 -4t142.5 -135q49 -109 -11 -133q-39 -14 -56 -6t-26 47q-10 70 -58 110.5t-120 40.5q-49 0 -84 -27.5t-71 -95.5q-29 -57 -52.5 -154.5t-9.5 -111.5q8 -10 49 33q20 20 47 36.5t54.5 29t57.5 18.5t58 6q100 0 177 -58.5 t109 -144.5t16.5 -187.5t-85.5 -181.5q-98 -113 -231 -121t-227 93q-74 76 -113 237.5t-20 311.5zM161.5 655q14.5 -51 71.5 -106q47 -45 82 -54.5t99 7.5q49 10 79.5 30.5t48 51t21.5 78.5q10 82 -18.5 146t-87.5 95q-35 18 -91.5 18.5t-95.5 -20.5q-68 -33 -100 -129 q-23 -66 -8.5 -117z" />
<glyph unicode="7" horiz-adv-x="739" d="M23 1343q-4 56 0 76q6 14 100 -2q100 -18 294.5 -17t237.5 19q45 18 50 19q4 0 12 -64q6 -45 -2 -66.5t-64 -93.5q-104 -139 -185 -323t-108 -346q-16 -94 -20 -103q0 -4 -14.5 -3t-28.5 5q-39 12 -78 0t-50 -0.5t17 115.5q80 311 269 596q72 109 63 117q-8 8 -250 10 h-239z" />
<glyph unicode="8" horiz-adv-x="733" d="M20 733q0 84 24 138.5t77 97.5l47 37l-35 53q-68 98 -29 214t154 159q59 23 142 17.5t126 -34.5l39 -29v48q0 49 18.5 69.5t63.5 24.5q53 4 60.5 -9.5t-25.5 -54.5q-37 -45 -39 -76.5t25 -95.5q51 -125 -35 -237q-41 -57 -41 -62q0 -4 47 -55q82 -80 75 -203t-100 -213 q-76 -78 -193.5 -97t-223 24t-150.5 131q-27 59 -27 153zM176 756q2 -43 26.5 -95.5t59.5 -80.5q27 -23 49.5 -29t75.5 -6q72 0 117 21.5t66.5 65.5t21.5 113q0 115 -82 164q-37 23 -98.5 31t-102.5 -6q-55 -16 -94 -68.5t-39 -109.5zM219 1143q37 -88 193 -80 q80 4 104.5 28.5t24.5 100.5q0 63 -19.5 94t-72.5 49q-72 20 -132.5 0t-91 -76.5t-6.5 -115.5zM592 1261.5q0 -24.5 12 -24.5t12 24.5t-12 24.5t-12 -24.5z" />
<glyph unicode="9" horiz-adv-x="714" d="M22 1108q-4 31 1 109q2 74 9 104.5t29 69.5q58 96 164 129q61 20 149.5 13t139.5 -36q49 -31 88 -84t62.5 -126t29.5 -158t-8 -178t-51 -180t-89 -153.5t-131 -97.5t-169 -12q-82 18 -147.5 91t-65.5 144q0 29 10 34t61 11q76 4 82 0q10 -4 11 -51q0 -47 41 -88t88 -41 q129 0 196 152q10 27 21.5 69.5t14.5 71.5t-1 33q-6 0 -68 -29q-131 -68 -258 -31t-182 158q-23 45 -27 76zM175 1111q24 -75 87 -112q96 -59 189.5 -17t105.5 148q8 76 -36 157t-107 108q-80 35 -145.5 -1t-92.5 -126q-25 -82 -1 -157z" />
<glyph unicode=":" />
<glyph unicode=";" />
<glyph unicode="&#x3c;" horiz-adv-x="839" d="M25 1090q-10 63 2 88q22 51 542 280q211 90 232 90q8 2 12 -2t6 -14t2 -29q0 -47 -14 -69q-14 -18 -177 -81t-318.5 -122.5t-155.5 -71.5q0 -33 413 -172l244 -86l-2 -74q-2 -70 -10 -84q-6 -8 -84 35q-127 70 -346 154t-303 94q-14 2 -21.5 7t-11.5 17.5t-10 39.5z" />
<glyph unicode="=" />
<glyph unicode="&#x3e;" horiz-adv-x="839" d="M23 844l2 59l157 68q180 76 295 121q137 51 141 63q4 14 -212 100q-37 14 -101 39q-213 84 -247.5 102.5t-34.5 49.5v14q-6 56 10 72q14 18 24.5 15t85.5 -40q88 -43 250 -107.5t273 -101.5q129 -41 143 -53q16 -12 12 -90l-4 -76l-65 -8q-47 -8 -142.5 -39t-207 -77 t-203.5 -91q-72 -35 -121 -57.5t-53 -22.5q-8 0 -2 60z" />
<glyph unicode="?" />
<glyph unicode="@" horiz-adv-x="993" d="M20 721q0 102 15.5 177t54.5 157q55 117 148 190.5t206 91.5q72 10 108 10.5t91 -10.5q201 -39 303 -229q18 -35 23.5 -67.5t5.5 -118.5q0 -92 -5 -124t-32 -83q-61 -121 -154.5 -149.5t-175.5 46.5l-28 27l-41 -41q-84 -82 -181.5 -77t-150.5 93q-47 82 -37 185.5 t74 187.5q76 96 184.5 108.5t159.5 -73.5q43 -72 43 -2q0 72 80 86q43 6 43 -2q0 -2 -2 -6q-66 -156 -93 -277q-16 -78 -16 -98.5t16 -44.5q49 -74 142 22q47 51 70.5 114t20.5 126.5t-27.5 122.5t-74 108.5t-114.5 77.5q-57 27 -148.5 29t-158.5 -23q-94 -31 -174 -136 t-107 -230q-14 -78 -7 -173t32 -149q27 -53 71.5 -100t98.5 -76q35 -18 68.5 -23.5t127.5 -5.5q133 0 197.5 24t130.5 97q57 66 67 49q6 -10 -30 -57q-59 -82 -181 -128t-253 -36q-141 10 -218 55.5t-131 149.5q-20 41 -27 64.5t-10.5 52.5t-3.5 88zM285 708q6 -79 63 -102 q35 -12 72 7.5t74.5 70.5t72.5 129q52 115 -22 172q-51 41 -114.5 12.5t-104.5 -112.5q-47 -98 -41 -177z" />
<glyph unicode="A" horiz-adv-x="931" d="M20 468q0 38 394 1011q8 22 64 22h5q61 0 74 -16q8 -8 96 -253t174 -490.5t86 -256.5q0 -16 -61 -16q-57 0 -77.5 23.5t-55.5 121.5q-37 104 -49 117q-11 16 -132 16q-30 0 -66 -1q-184 -5 -204 -25q-8 -8 -56 -116.5t-54 -117.5q-10 -14 -68 -23q-25 -4 -42 -4 q-28 0 -28 8zM305 821l156 8q156 6 166 17q1 1 1 5q0 28 -63 222q-76 236 -90 236q-4 0 -6 -11q-143 -397 -156 -448z" />
<glyph unicode="B" horiz-adv-x="833" d="M20 463l3 510q2 506 10 518q5 8 98 8q55 0 139 -3q228 -7 285 -21q121 -29 170 -125q28 -54 28 -113q1 -20 -3 -40q-12 -81 -68 -138q-16 -16 -21.5 -30.5t0 -23t19.5 -8.5q20 0 62 -37.5t57 -70.5q16 -37 16 -75v-8q-2 -42 -27 -116q-47 -156 -182 -207q-47 -18 -98 -21 q-31 -2 -107 -2q-51 0 -122 1zM163 1220q3 -136 15 -143q14 -10 126 -10h40q156 2 213 34t57 118q0 47 -24.5 82t-67.5 47q-38 12 -190 20q-68 4 -107 4q-49 0 -53 -6q-10 -8 -10 -96q0 -23 1 -50zM166 752l2 -150l182 -4q23 0 44 -1q115 0 155 10q47 11 90 61q41 44 41 96 q0 18 -5 36q-19 74 -95 105q-47 20 -224 27q-75 3 -116 3q-20 0 -32 -1q-34 -2 -40 -14q-4 -10 -4 -68q0 -39 2 -100z" />
<glyph unicode="C" horiz-adv-x="854" d="M22 944q-2 33 -2 64q0 126 35 219q18 45 49 88t68 76.5t81 59.5t87 38q34 8 100 8q33 0 74 -2q123 -6 160 -25q149 -77 149 -213q0 -47 -7 -57t-44 -18q-23 -6 -30 0t-13 39q-14 82 -80.5 127t-169.5 45q-57 0 -85.5 -6.5t-71.5 -30.5q-59 -33 -92 -78t-60 -127 q-34 -109 -34 -203q0 -60 14 -114q20 -76 57 -123t102 -82q68 -35 148 -35q23 0 47 3q108 13 166 75q31 33 49 83q15 41 15 74q0 7 -1 15q-2 31 3 40t32 15q23 6 35 7t20 -7t10.5 -22.5t2.5 -40.5q0 -111 -73 -217.5t-171 -139.5q-60 -23 -123 -23h-21q-74 4 -141 28 t-123.5 72t-91.5 112q-60 108 -70 276z" />
<glyph unicode="D" horiz-adv-x="829" d="M23 971q-3 206 -3 327q0 161 5 172q6 18 221 18h11q206 0 275 -18q135 -35 207 -150.5t72 -297.5q0 -156 -49 -281t-131 -180q-68 -43 -135.5 -56t-249.5 -16h-221zM168 762l8 -148l100 -4q19 -1 37 -1q78 1 136 15q71 18 121.5 57.5t82.5 109.5q27 53 33 84.5t6 128.5 q0 66 -3 97.5t-9 55t-21 55.5q-57 119 -182 158q-47 12 -121 14h-25q-60 0 -110 -8l-45 -8l-8 -229q-5 -114 -5 -208.5t5 -168.5z" />
<glyph unicode="E" horiz-adv-x="827" d="M20 993l5 500l219 10q123 4 201.5 11.5t191.5 9.5l133 2l4 -66q1 -21 1 -35q0 -29 -3 -32q-4 -2 -212 -15.5t-335 -19.5l-63 -2l-2 -137v-42q0 -97 8 -108q12 -12 293 -14t293 -11q14 -8 8 -49l-10 -41l-590 -12v-340l309 -8q309 -6 324 -16q14 -8 14 -37t-16 -49 q-11 -16 -53 -18h-16q-54 0 -204 7q-139 8 -236 8q-83 0 -134 -6q-56 -4 -87 -4t-36 4q-7 5 -7 404v106z" />
<glyph unicode="F" horiz-adv-x="788" d="M23 928q6 529 18 547q8 14 31 6q23 -10 358 -13l340 -4v-63q-2 -66 -16 -78q-14 -14 -301 -18l-287 -5l-8 -28q-6 -29 -8 -148l-3 -118l48 10q59 10 253 22q121 7 173 7q31 0 36 -3q17 -6 17 -59v-6l-4 -62l-115 -2q-76 -2 -168 -9t-159.5 -17t-75.5 -17 q-16 -14 -17 -249v-236l-47 -6q-49 -6 -61 8q-6 8 -6 217q0 126 2 324z" />
<glyph unicode="G" horiz-adv-x="993" d="M20 942v7q0 255 152 415q55 59 95.5 86.5t99.5 50.5q63 24 144 24q17 0 34 -1q102 -6 176 -43q152 -70 223 -228q31 -66 31 -91q0 -5 -1 -8q-5 -16 -45 -16q-12 0 -26 1q-53 6 -76.5 21.5t-23.5 47.5q0 72 -84 127.5t-201 61.5q-23 2 -43 2q-57 0 -92 -13 q-43 -14 -95 -58t-83 -93q-67 -106 -67 -251q0 -24 2 -48q12 -176 106 -299q53 -70 154 -101q55 -16 108 -16q45 0 88 12q53 16 106.5 61.5t88 105t40.5 116.5l5 39l-168 2q-135 4 -159 14q-15 5 -15 26q0 13 6 32l10 37l119 -2q16 -1 30 -1q96 0 156 23q66 25 92 35 q14 4 17 -16q6 -29 6 -177q0 -193 22 -311q13 -60 13 -90q0 -24 -9 -29q-10 -4 -43 9q-33 12 -49 67q-16 59 -29.5 64.5t-50.5 -33.5q-43 -45 -110 -82q-43 -23 -73 -28t-99 -5q-47 0 -74 3t-49.5 9.5t-52.5 22.5q-145 70 -225.5 204t-80.5 314z" />
<glyph unicode="H" horiz-adv-x="849" d="M20 1540l29 10q18 7 35 7q36 0 66 -33q10 -12 14 -33t6 -63t2 -136v-207l35 -14q43 -18 161 -19h12q110 0 193 17l107 23q6 219 12 440h139l-6 -516q-4 -514 -12 -539q-6 -16 -20.5 -21t-57.5 -3h-67l4 137q2 119 10 233q2 40 2 63q0 18 -1 24q-3 16 -24 28 q-31 16 -237.5 16t-228.5 -18q-12 -10 -17.5 -37t-5.5 -100q-2 -141 -10 -236l-8 -112h-113l-6 182q-8 152 -10 545z" />
<glyph unicode="I" horiz-adv-x="178" d="M20 942v131q0 363 5 375q2 6 17 9t34.5 3t39 -1t33 -5t11.5 -10q0 -6 -3 -152.5t-7 -320.5t-8.5 -319.5t-4.5 -149.5l-4 -51h-108z" />
<glyph unicode="J" horiz-adv-x="634" d="M20 694v109h113l8 -70q12 -133 107 -162q31 -11 59 -11q78 0 129 85q10 18 19 440l6 420l31 8q32 9 68 9h7l43 -2l4 -209q1 -50 1 -100q0 -164 -10 -337q-13 -225 -32 -280q-29 -82 -92 -116t-188 -34q-164 0 -238 99q-25 31 -30 55.5t-5 95.5z" />
<glyph unicode="K" horiz-adv-x="849" d="M23 1466q0 8 69 9h68v-238q0 -221 16 -236q2 -2 5 -2q13 0 50 37q53 55 243 228.5t210 183.5q23 12 81 14h16q51 0 50 -10q1 -6 -65 -66q-68 -62 -149.5 -136t-150.5 -135.5t-69 -63.5q-2 -2 -2 -6q0 -26 60 -134q63 -113 124.5 -196.5t153.5 -182.5q39 -41 63.5 -70.5 t20.5 -33.5q-2 -1 -10 -1q-19 0 -69 6q-74 9 -107 18q-18 6 -99 136t-135 244l-73 156l-48 -39q-39 -31 -50 -39t-30.5 -33.5t-21.5 -31.5t-8 -45t-6 -60.5t-2 -93.5l-4 -194l-54 -11q-26 -6 -42.5 -6t-22.5 6t-11 440q-3 241 -3 395q0 123 2 191z" />
<glyph unicode="L" horiz-adv-x="716" d="M20 1503q8 12 57.5 9t53.5 -15q6 -18 23 -469l16 -450h528l-4 -37q-2 -6 -2 -17q-6 -53 -38 -62q-27 -7 -162 -7h-66q-41 2 -64 2q-301 2 -315 8q-8 6 -10 278q0 250 -10 512q-8 175 -8 226q0 19 1 22z" />
<glyph unicode="M" horiz-adv-x="1005" d="M25 1276q-5 90 -5 137.5t5 52.5q8 8 59 8q15 0 35 -1l86 -5l117 -352q104 -317 131.5 -394t35.5 -77q6 0 26 40t46.5 107.5t57 149.5t61.5 173t57 171q8 29 17.5 58.5t16.5 52t12 42t9.5 30t4.5 12.5q3 10 72 10h24h94l-4 -82q0 -35 -14 -270q-14 -197 -15 -426v-232 l-65 4q-45 2 -55.5 7.5t-8.5 27.5q7 52 11 232q4 147 3 264v50q-1 134 -5 159q-10 0 -121 -328q-100 -301 -135 -385l-25 -55l-72 4q-47 2 -60 8t-20 27q-225 753 -254 753q-9 0 -9 -228q0 -76 1 -177v-47q1 -81 1 -144q0 -188 -9 -209q-12 -18 -47 -6q-4 2 -6 2 q-18 8 -25 43q-4 39 -8 291q-8 309 -20 502z" />
<glyph unicode="N" horiz-adv-x="827" d="M20 426v141q0 207 5 506l2 365h86h10q39 0 53 -1t35.5 -21.5t36 -46.5t51.5 -97q6 -12 8 -17q74 -133 318 -518q47 -80 59 -80q5 0 5 41q0 31 -3 84q-8 100 -10 398l-2 274l51 16q6 2 16 7q41 14 52 -4q16 -28 16 -278v-58q0 -23 -2 -70v-106q-2 -522 -12 -533 q-7 -7 -43 -7q-14 0 -33 1l-66 4l-35 82q-35 84 -90 170q-74 117 -215 318.5t-149 201.5q-12 0 -14 -385l-5 -387h-125z" />
<glyph unicode="O" horiz-adv-x="1042" d="M20 918q0 70 20.5 160.5t49.5 148.5q47 94 143.5 170.5t198.5 103.5q34 8 88 8q27 0 58 -2q63 -4 99 -13t93 -36q113 -57 171 -144t77 -231q6 -55 6 -107q0 -47 -5 -92q-11 -93 -45 -171t-91 -133q-80 -82 -213 -125q-94 -30 -180 -30q-36 0 -70 5q-172 29 -286 167 t-114 321zM205 934q-1 -27 -1 -49q0 -55 4 -81q5 -36 25 -81q41 -92 121 -138q68 -39 157 -39q16 0 32 1q102 10 181 71.5t119 152.5q38 87 38 198v11q-2 118 -52 230q-31 70 -67.5 106t-91.5 52q-66 20 -125 20q-139 0 -236 -110q-59 -70 -81.5 -142.5t-22.5 -201.5z" />
<glyph unicode="P" horiz-adv-x="786" d="M20 426l5 489q6 492 10 500q6 10 248 10q209 0 283.5 -14t121.5 -63q80 -82 80 -205q0 -98 -44 -178t-114 -105q-39 -16 -231 -26q-197 -14 -205 -23q-8 -8 -18 -199l-11 -186h-125zM172 954l143 2q137 4 195.5 18.5t93.5 55.5q45 50 45 109q1 11 -1 22q-10 72 -73 119 q-23 16 -59.5 21.5t-150.5 7.5q-68 2 -107 2q-29 0 -42 -1q-30 -3 -34 -20q-10 -25 -10 -180v-156z" />
<glyph unicode="Q" horiz-adv-x="1017" d="M22 1060q11 107 60 210q94 194 352 229q38 5 77 5q83 0 171 -23q106 -31 177 -122t91 -222q9 -57 9 -119q0 -82 -15 -174q-14 -68 -51 -155t-57 -99q-15 -9 -15 -18q0 -15 43 -29q31 -10 74 -15q12 -2 26.5 -3t23.5 -2l9 -1q2 -2 -3 -9t-17 -21q-25 -27 -41 -58 q-10 -20 -22.5 -23t-57.5 1q-88 14 -139 59q-18 16 -31.5 16t-62.5 -14q-42 -11 -87 -11q-30 0 -61 5q-109 18 -199 73.5t-147 137.5t-87 178q-22 71 -22 149q0 27 2 55zM158 1000v-23q0 -118 39 -199q39 -82 113.5 -139t166.5 -74q22 -4 47 -4q22 0 46 3q53 7 53 21.5 t-43 71.5q-31 45 -34 56.5t11 25.5q25 20 41 15.5t61 -52.5q55 -57 70 -57q20 0 53 46t47 95q18 66 19 187q0 162 -46.5 260t-144.5 149q-75 37 -151 37q-52 0 -104 -17q-128 -44 -193 -177q-47 -92 -51 -225z" />
<glyph unicode="R" horiz-adv-x="847" d="M20 489l3 500q2 504 10 508q2 4 117 16q64 6 155 7q55 0 120 -3q173 -6 224 -20q88 -27 134 -113q35 -66 35 -142q0 -23 -3 -48q-14 -104 -86 -178l-37 -39l27 -25q35 -33 48 -78t19 -159q10 -145 27 -193q18 -43 14 -45q-8 -6 -69 -10q-18 -2 -28.5 -2t-22 3t-17.5 7 t-12 15.5t-9 23.5t-6.5 36.5t-4.5 49.5t-3 66q-6 127 -24.5 176t-59.5 63q-24 6 -111 6q-52 0 -126 -2l-201 -6l-12 -414h-101zM133 1380l2 -200l4 -201l121 -4q16 0 32 -1q176 0 278 62q110 66 110 189q0 33 -9 51t-38 49q-49 47 -96 61q-39 10 -149 12h-28q-92 0 -163 -9z " />
<glyph unicode="S" horiz-adv-x="792" d="M20 1219q0 102 76 181.5t201 106.5q68 17 111 17q2 0 3 -1q42 0 99 -12q61 -12 113.5 -52t83 -96t30.5 -114q0 -33 -6 -51t-18.5 -27.5t-32.5 -9.5q-57 0 -57 64q0 29 -23 80q-36 83 -108 119q-48 25 -101 24q-25 0 -51 -6q-80 -18 -139 -84q-54 -58 -54 -127 q0 -68 52 -125q39 -47 100 -67.5t186 -28.5q141 -8 177 -21q70 -29 98 -107q16 -44 16 -92q0 -37 -10 -77q-22 -92 -84 -158q-106 -111 -248 -111q-135 0 -236.5 90.5t-107.5 210.5v11q0 48 16 48q19 0 33 -61q27 -106 137 -157q76 -35 147 -35q41 -1 79 11q108 32 151 136 q19 46 19 70t-19 61q-20 45 -60 62.5t-118 17.5q-213 0 -334 82t-121 228z" />
<glyph unicode="T" horiz-adv-x="968" d="M23 1409q-2 13 -2 24q0 42 32 42q41 0 354.5 -13.5t407.5 -19.5l135 -6q-4 -41 -8 -80h-412l5 -434q4 -477 4 -496l2 -64h-125v52q15 504 15 739q0 200 -11 203q-23 6 -205 14q-139 8 -164.5 13.5t-27.5 25.5z" />
<glyph unicode="U" horiz-adv-x="854" d="M23 1139q-2 170 -2 258t2 94q5 14 59 14h14l68 -2l8 -338q6 -256 15.5 -331.5t43.5 -133.5q53 -84 141 -110q34 -10 66 -9q53 0 105 25q84 41 127 133q14 35 17 103q2 40 2 142q0 68 -1 163l-2 354l72 -4l71 -4l5 -188q1 -45 1 -87q1 -112 -7 -212q-10 -136 -32 -236 t-55 -156q-49 -86 -114.5 -121.5t-169.5 -35.5q-63 0 -94 8t-89 37q-55 27 -100 64.5t-78 81.5t-47 89q-20 63 -26 402z" />
<glyph unicode="V" horiz-adv-x="931" d="M20 1479q6 6 37 6t69 -5t46 -14q6 -8 145 -407q136 -402 146 -402q4 0 72.5 204t140.5 417t84 227q18 18 59 18q11 0 23 -1q59 -4 71 -17q1 -1 1 -4q0 -26 -66 -196q-70 -170 -182 -508q-104 -315 -115 -330q-5 -4 -24.5 -4t-53.5 4l-65 10l-80 223q-152 426 -265 672 q-43 92 -43 107z" />
<glyph unicode="W" horiz-adv-x="1333" d="M66 1504q40 -5 51 -15q8 -8 96 -359q86 -336 101.5 -391t25.5 -55q4 0 9 12.5t21.5 68.5t42 148.5t74.5 272.5q80 295 101 311q18 11 86 15q14 1 25 1q43 0 49 -10q8 -12 65 -237q53 -209 106.5 -389.5t63.5 -180.5q4 0 42 177.5t83 373t63 230.5q12 25 73 25h2 q63 0 69 -15v-3q0 -19 -33 -159q-37 -156 -86 -339t-93 -338.5t-52 -164.5q-10 -12 -99 -16l-88 -4l-67 239q-45 164 -107 390q-41 157 -49 157q-2 0 -6 -2q-6 -6 -109 -401l-104 -395l-68 4q-70 4 -80 14q-14 14 -138 516q-116 472 -116 513q0 12 46 6z" />
<glyph unicode="X" horiz-adv-x="931" d="M20 481q0 8 29 47q47 55 191.5 264t144.5 222q0 16 -164 234.5t-164 226.5q0 18 18.5 22t59.5 4h62l127 -182q129 -182 143 -182q6 0 41 46t76 107q104 152 132.5 181.5t71.5 29.5q49 0 50 -14q0 -10 -152 -234q-145 -213 -145 -235q0 -6 99 -148q93 -132 183 -260.5 t90 -132.5q-2 -8 -43 -7t-67 7q-27 8 -180 221q-45 61 -74 101.5t-49.5 64t-30.5 31.5t-14 4q-20 -18 -146 -221l-131 -209h-78q-80 0 -80 12z" />
<glyph unicode="Y" horiz-adv-x="894" d="M61 1489q13 0 29 -1q62 -5 76 -22q18 -23 88 -137.5t123 -214.5q54 -102 67 -102v0q12 0 125 188q109 182 148 238q25 35 40 42t60 7q57 -2 57 -14q-4 -14 -192 -299l-186 -283q-6 -207 -13 -414h-88q-10 213 -20 422l-180 287q-175 274 -175 292q0 11 41 11z" />
<glyph unicode="Z" horiz-adv-x="835" d="M20 516q0 39 43 103.5t248 334.5q161 213 221 300q52 75 51 87q0 2 -1 2q-8 4 -99 4q-60 0 -157 -2q-242 -4 -275 -10q-14 -2 -19 6.5t-9 40.5q-1 8 -1 15q0 42 21 53q37 23 311 33q27 0 74 2q282 10 347 10q17 0 19 -1q14 -3 19 -77q4 -29 4 -48q0 -11 -2 -19 q-4 -18 -24 -43q-2 -2 -100.5 -115t-211 -242t-208 -241.5t-97.5 -120.5q-2 -6 3 -9.5t23.5 -5.5t48.5 -2.5t83 -0.5q201 0 440 57q20 5 24 -5q2 -5 3 -24q0 -16 -2 -43l-4 -78l-232 -22q-213 -19 -361 -21h-41q-109 0 -124 12q-14 16 -15 70z" />
<glyph unicode="[" />
<glyph unicode="]" />
<glyph unicode="a" horiz-adv-x="735" d="M20 1063q-1 3 -1 7q-1 29 45 82q50 60 106 89q46 25 74 29q18 3 63 3q22 0 51 -1q96 -4 141.5 -19.5t75.5 -54.5q22 -31 22 -139q0 -90 -15 -232q-7 -74 -8 -118q0 -31 4 -47q8 -42 47 -41q29 0 45 14q8 8 16 8q17 0 27 -49q2 -2 2 -6q8 -37 -12.5 -55.5t-71.5 -18.5 q-33 0 -49.5 9t-42.5 40l-41 47l-58 -49q-90 -78 -192 -78q-39 0 -95.5 31t-89.5 74q-25 31 -31.5 53.5t-6.5 72.5t6 72.5t30 53.5q35 47 105 78q44 24 70 26q10 1 25 0q23 0 58 -2l89 -10l45 45q31 31 38 46t1 46q-14 84 -99 105q-23 6 -46 6q-47 0 -97 -25 q-74 -37 -100 -102l-17 -41l-55 16q-53 16 -58 35zM139 766q-16 -34 -16 -63q1 -41 33 -73q39 -38 99 -39q25 0 54 7q158 35 201 254q8 39 8 61q0 27 -13 27h-3q-10 -2 -23 -16q-25 -27 -94 -39q-133 -27 -178 -48.5t-68 -70.5z" />
<glyph unicode="b" horiz-adv-x="669" d="M20 1284v172l43 8q47 6 58 4q10 -1 10 -85q0 -36 -2 -87q-1 -57 -1 -96q0 -79 5 -88q8 -16 51 23q51 45 117 56q24 4 47 4q41 -1 78 -13q59 -20 111.5 -70.5t78.5 -122.5q36 -96 36 -187q0 -112 -54 -218q-54 -109 -160 -153q-53 -22 -106 -22q-51 0 -99 21 q-53 25 -61 39q-10 16 -26.5 12t-22.5 -24q-6 -25 -51 -25h-45l-2 340q-4 281 -5 512zM117 827q-1 -13 -1 -25q0 -41 10 -78q13 -48 41 -86t69 -63q49 -30 106 -30q10 1 18 1q66 6 107 44q63 60 89 162q12 48 12 91q0 48 -15 89q-12 31 -46 69t-69 54q-33 18 -94 18 t-111.5 -30.5t-80 -86t-35.5 -129.5z" />
<glyph unicode="c" horiz-adv-x="677" d="M20 807q6 92 35 170t79.5 130.5t111.5 72.5q40 14 86 13q38 0 81 -9q93 -21 148 -74q35 -34 63 -104q18 -45 19 -67q0 -13 -6 -19q-10 -10 -59 0q-29 6 -40.5 15t-19.5 32q-18 59 -74 95q-53 34 -112 34h-6q-64 -2 -109 -45q-51 -47 -69 -170q-8 -50 -8 -96 q0 -67 16 -126q14 -47 54 -92t77 -55q14 -3 28 -3q50 0 111 38q78 49 86 108q0 12 3 19.5t8 9.5t12 0q14 -2 71 -2q53 0 53 -18q0 -43 -66.5 -123t-127.5 -113q-52 -28 -118 -28h-13q-74 3 -137 38q-178 96 -178 340q0 14 1 29z" />
<glyph unicode="d" horiz-adv-x="704" d="M26 892q22 124 105 218q59 64 115 84q35 13 78 12q25 0 53 -4q78 -14 127 -47q49 -35 55 -29v8q0 30 -6 168q-5 116 -5 155q0 20 1 20q6 8 53 14q6 2 19 2q7 1 13 1q36 0 42 -41q8 -48 10 -341v-115v-179q0 -319 -6 -324q-12 -8 -59 -15q-37 -2 -44.5 3t-9.5 38 q-2 47 -2 55q-2 8 -39 -28q-57 -63 -148 -75q-20 -3 -41 -3q-70 0 -136 33q-101 50 -149 158q-33 74 -33 156q0 37 7 76zM168 834q0 -78 5 -108t26 -64q58 -102 147 -102q8 0 16 1q100 10 152 129q33 75 33 157q1 45 -9 92q-28 134 -108 167q-39 16 -63 16h-5 q-26 -2 -73 -24q-53 -29 -88 -86q-23 -39 -28 -69t-5 -109z" />
<glyph unicode="e" horiz-adv-x="690" d="M23 852q6 115 60 201t144 129q68 31 141 31q28 -1 58 -5q104 -16 164 -86q38 -42 66 -160q16 -66 16 -100q0 -26 -10 -33q-5 -3 -28 -3q-41 0 -140 10q-91 9 -166 8q-52 0 -95 -4q-80 -8 -94 -14.5t-16 -34.5q-1 -7 -1 -14q0 -41 28 -87q34 -54 83 -78q45 -24 114 -28 q12 -1 24 -1q52 0 80 13q16 8 33.5 22.5t30.5 29t22.5 27.5t9.5 21q0 23 15.5 34t41.5 7q31 -6 38 -24.5t-6 -58.5t-54 -79.5t-88 -58.5q-45 -20 -132.5 -20t-150.5 18q-95 29 -147 120q-43 75 -43 175q0 21 2 43zM125 924q8 -14 214 -14q8 0 15 -1q191 0 199 13 q10 18 -6.5 62t-49 87t-63.5 59q-39 18 -100 19q-43 0 -62.5 -8t-58.5 -43q-41 -40 -71 -98q-21 -42 -20 -62q0 -9 3 -14z" />
<glyph unicode="f" horiz-adv-x="407" d="M21.5 1118q1.5 6 1.5 17q2 33 18 48t49 19q31 2 37 12.5t10 65.5q8 84 31.5 118.5t89.5 59.5q47 14 84 17q23 0 29 -7.5t6 -35.5q0 -20 -4 -30.5t-12.5 -17t-26.5 -14.5q-37 -16 -62 -54q-21 -33 -21 -62q0 -4 1 -9q2 -16 14.5 -23.5t44.5 -13.5q27 -4 41.5 -7t23.5 -10 t11 -16.5t2 -25.5t-1 -21.5t-9 -10.5t-20.5 -6t-41.5 -3l-73 -4l2 -258q2 -266 10 -316l8 -61h-57q-57 0 -60 4q-4 4 -10 318l-6 313h-57q-20 0 -30.5 1t-17 4t-5 9z" />
<glyph unicode="g" horiz-adv-x="647" d="M20 897q2 238 124 345q67 60 148 60q66 0 142 -40q74 -37 78 -37t2 25.5t-5 48t1 26.5q6 0 55 -27q31 -14 42 -28.5t18 -42.5q4 -22 4 -99q0 -91 -5 -260q-10 -309 -22 -352q-31 -113 -123 -182q-88 -65 -192 -65h-9q-110 3 -184 81q-51 51 -65 94q-12 35 0 44.5t69 11.5 q29 2 38 -4.5t18 -30.5q6 -23 21 -45.5t38 -42t49 -29.5q23 -9 48 -9q21 0 43 6q50 13 96 52q79 71 79 190q0 66 -12 70q-12 -2 -27 -20q-20 -23 -72 -44.5t-91 -21.5q-53 0 -107.5 21.5t-100.5 59.5t-71 85q-16 33 -21.5 63.5t-5.5 96.5zM127 918q0 -80 11.5 -121t45.5 -78 q45 -47 118 -47t126 45q92 80 92 225q0 139 -84 217q-33 29 -82 34q-9 1 -18 1q-40 0 -78 -18q-72 -33 -101.5 -92.5t-29.5 -165.5z" />
<glyph unicode="h" horiz-adv-x="641" d="M20 1002q0 508 9 516q10 10 55 6l43 -4l4 -172q2 -174 12 -174q12 0 47 38q36 38 92 58q41 15 77 14q14 0 28 -2q88 -12 148.5 -88t74.5 -199q10 -78 12 -219v-39q0 -112 -8 -174l-10 -61h-125l-2 243q0 109 -3 170.5t-11 107.5t-27.5 65.5t-44 26.5t-69.5 7 q-47 0 -90.5 -21.5t-63.5 -56.5q-16 -31 -23 -284l-7 -258l-42 -10q-44 -8 -60 -3t-16 484v29z" />
<glyph unicode="i" horiz-adv-x="172" d="M20 772v92q0 257 5 269q4 16 55 16h49l8 -129q8 -129 10 -363l3 -231h-125zM33 1366q-1 7 -1 13q0 64 54 75q37 6 49 5t17 -13q3 -8 3 -20q0 -20 -8 -54q-6 -39 -14 -46t-45 -7t-44 6t-11 41z" />
<glyph unicode="j" horiz-adv-x="321" d="M25 225q6 23 17 32t42 13q59 10 70.5 60.5t11.5 326.5q4 498 12 539q0 6 57.5 2t59.5 -10q8 -10 8 -418q0 -332 -10 -425t-57 -148q-12 -14 -25.5 -21.5t-31 -10.5t-54.5 -7q-16 -1 -29 -1q-48 0 -64 11q-20 14 -7 57zM168 1380q-2 18 -2 33q0 21 4 33q6 12 49 16t49 -8 q8 -14 11 -68l6 -55h-113z" />
<glyph unicode="k" horiz-adv-x="647" d="M20 473v75.5t1.5 198.5t1.5 240l4 477l106 -8l4 -291q2 -293 13.5 -293t156.5 156l148 158h88q86 0 86 -8q0 -6 -148 -150l-147 -139l76 -123q72 -117 145 -219q74 -94 74 -107q0 -4 -12.5 -4t-31 1t-37 3t-34.5 3t-20 1q-14 0 -22.5 3.5t-26 22.5t-36 48t-59.5 96 q-102 170 -117 170q-12 0 -51 -39q-25 -25 -33 -52t-16 -120l-12 -135h-51q-35 0 -42.5 5.5t-7.5 29.5z" />
<glyph unicode="l" horiz-adv-x="200" d="M23 1520q4 5 31 5q13 0 32 -1l57 -4l7 -64q26 -200 32 -576q1 -75 2 -137q0 -244 -18 -262q-7 -7 -25 -7q-15 0 -39 5l-47 10l-10 371q-10 356 -20 512q-5 80 -5 117q0 28 3 31z" />
<glyph unicode="m" horiz-adv-x="1024" d="M20 524q2 168 7 367l8 364h61q25 0 36 -1t18.5 -5t9.5 -9t4 -19q4 -35 8 -35t51 31q59 40 130 40q9 -1 17 -1q81 -6 140 -58q41 -37 51 -37t69.5 44.5t108.5 54.5q29 8 58 8h11q34 -2 61.5 -13.5t50 -32t36.5 -46.5q51 -98 51 -334q0 -56 -3 -121q-10 -182 -19 -191 q-10 -8 -65 -12q-41 -4 -48.5 1t-5.5 32q6 81 6 211q0 48 -1 104q-3 204 -13 236q-16 48 -50 68q-24 14 -50 14q-11 0 -22 -2q-38 -8 -72.5 -44t-51.5 -94q-16 -54 -32 -218q-11 -119 -11 -189q0 -27 2 -47l2 -64l-53 -8q-51 -6 -59 0q-2 2 -2 20q0 27 4 89q2 39 2 81t-2 88 q-4 91 -17.5 175t-27.5 114q-18 37 -54 63t-71 26q-25 0 -64 -31q-45 -39 -61 -120t-25 -306l-8 -203l-57 4q-53 2 -58 6z" />
<glyph unicode="n" horiz-adv-x="645" d="M20 872l5 371h57q39 0 48 -5t11 -30q4 -31 12.5 -31.5t45.5 27.5q43 29 96 49q43 16 86 16q31 -1 63 -9q74 -20 119 -76q37 -51 47.5 -120t14.5 -286l2 -274l-64 -4l-65 -2l6 190q2 58 2 108q0 238 -47 302q-31 43 -95 45h-6q-60 0 -114 -35q-58 -37 -76 -96 q-14 -47 -18 -279l-7 -231l-53 -8q-51 -8 -63 0q-7 7 -7 300v78z" />
<glyph unicode="o" horiz-adv-x="688" d="M23 893q-2 28 -2 54q0 135 52 227q62 108 193 147q53 13 101 13q19 0 37 -2q64 -7 116.5 -39.5t87.5 -90.5q38 -59 52 -130q10 -55 11 -134q0 -23 -1 -49q-6 -127 -44 -203t-120 -117q-45 -22 -114 -22q-32 1 -70 5q-118 16 -189 66q-96 70 -110 275zM152 948 q0 -158 64 -236q53 -64 139 -63q18 0 38 2q59 8 91 33t59 84q16 33 23 57.5t9.5 53t2.5 88.5q0 86 -5.5 114.5t-29.5 67.5q-33 60 -84 80q-47 18 -89 18q-71 0 -128 -52q-90 -83 -90 -247z" />
<glyph unicode="p" horiz-adv-x="675" d="M20 821v153q0 423 5 435q6 16 47 12l41 -2l-4 -92q-1 -23 -1 -39q0 -51 9 -51q14 0 14 25q0 29 49 78t96 67q43 14 84 14q31 0 61 -7q71 -19 131 -81.5t89 -148.5q16 -49 16 -120q0 -18 -1 -38q-5 -96 -33 -168q-57 -152 -185 -209q-55 -24 -106 -24q-69 0 -133 45 q-47 34 -61 34q-3 0 -5 -2q-4 -5 -4 -62q0 -38 2 -99q6 -168 6 -222v-69h-112zM96 1149q-2 -22 -2 -49q0 -60 12 -144q33 -235 196 -235h1q96 0 158.5 57.5t85.5 167.5q6 31 6 63q0 68 -29 139q-43 103 -121 138q-47 23 -91 23q-42 0 -81 -21q-27 -14 -44 -36.5t-50 -84.5 q-6 -12 -12 4q-9 18 -16 18q-9 0 -13 -40z" />
<glyph unicode="q" horiz-adv-x="684" d="M23 956q8 127 68.5 235.5t137.5 133.5q26 9 56 9q20 0 41 -4q53 -9 96 -38q37 -25 67.5 -81t30.5 -101q0 -37 -11 -37t-20 37q-8 39 -41.5 79t-70.5 54q-26 11 -51 11t-50 -12q-47 -23 -81.5 -86.5t-51.5 -160.5q-8 -43 -8 -82q0 -121 78 -200q65 -65 129 -65q11 0 22 2 q74 12 121 110q23 43 38.5 127t18.5 175q1 25 1 49q0 66 -6 130q-8 77 -8 102q0 10 1 11q5 4 44.5 -9.5t56.5 -25.5q10 -6 12 -51q1 -15 1 -39q0 -49 -3 -135q-4 -78 -4 -167q0 -143 10 -313q16 -270 17 -307l2 -45h-138l2 199q1 35 1 64q0 130 -15 130q-6 0 -20 -16 q-25 -31 -80.5 -52.5t-108.5 -21.5q-68 0 -128 34t-99 95.5t-52 116.5q-8 35 -8 85q0 28 3 60z" />
<glyph unicode="r" horiz-adv-x="382" d="M20 1155l43 21q39 20 51.5 14t12.5 -43t6 -37q4 0 62 39q51 37 108 41l57 2l2 -53q1 -12 1 -21q0 -32 -10 -48q-13 -20 -44 -15q-8 2 -17 2q-27 -1 -61 -19q-45 -24 -69 -65q-18 -31 -24.5 -74t-10.5 -209l-6 -239l-35 -17q-37 -18 -47 -6q-8 10 -14 369z" />
<glyph unicode="s" horiz-adv-x="729" d="M20 1010q0 133 91 207q25 23 64.5 44t82.5 38.5t80 25.5q33 6 70 7q22 0 46 -3q64 -6 105 -26q45 -25 82 -84.5t43 -118.5q4 -45 0 -53.5t-33 -14.5q-16 -4 -28.5 0t-21.5 15.5t-26 39.5q-49 79 -123 101q-27 8 -56 8q-49 0 -99 -25q-55 -29 -79 -73q-14 -26 -15 -49 q0 -17 8 -33q20 -43 63 -63.5t142 -37.5q127 -20 155 -36q35 -18 75 -61.5t52 -74.5q14 -36 14 -90q0 -60 -18 -98q-18 -43 -72.5 -89t-101.5 -60q-39 -10 -112 -10q-28 0 -62 2q-119 6 -158 26q-31 16 -67.5 56t-48.5 71q-21 54 -21 71q0 16 39 31q47 18 60 15 q10 -4 38 -72q16 -45 33 -62.5t51 -33.5q54 -28 110 -28q49 0 99 22q63 31 84 93q8 22 8 43q0 37 -24 68q-47 59 -227 86q-106 12 -162 35t-94 68q-16 18 -24.5 27.5t-13.5 24.5t-6.5 28.5t-1.5 42.5z" />
<glyph unicode="t" horiz-adv-x="393" d="M20 1180q0 27 8.5 33t49.5 12l55 6l4 94q2 86 8 111q6 16 54 12l47 -4l14 -201l43 -6q29 -4 37 -12t10 -35q4 -29 -1 -35t-36 -6q-43 0 -58 -15.5t-15 -236.5q0 -137 4 -186t18 -78q14 -27 25.5 -35t36.5 -8q27 0 35 -7.5t14 -35.5q2 -20 1 -34.5t-10.5 -22t-27 -10.5 t-45.5 -3q-39 0 -57.5 6t-38.5 29l-37 33q-6 293 -13 585l-61 7q-47 4 -55.5 10t-8.5 33z" />
<glyph unicode="u" horiz-adv-x="628" d="M20 1198q0 6 2.5 10t10.5 6.5t23.5 2.5h39.5h80l-2 -273q-1 -63 -1 -110q0 -96 3 -130q4 -52 21 -90q37 -82 109 -87h9q66 0 125 69q50 58 62 124q11 57 10 211v52v244q2 12 47 6l47 -2l4 -391q1 -101 1 -173q0 -108 -2 -152q-3 -73 -15 -83q-18 -16 -50 5.5t-40 39.5 q-12 47 -18.5 50t-32.5 -21q-20 -20 -38 -31.5t-38.5 -20t-42 -11.5t-51.5 -3q-68 2 -126.5 34t-86.5 83q-16 31 -18 72q-1 16 -1 47q0 50 2 139q3 76 3 130.5t-3 86.5q-6 66 -33 166z" />
<glyph unicode="v" horiz-adv-x="735" d="M32 1191q16 -1 54 -9q60 -14 74 -25q10 -12 102 -272q25 -66 40 -111t28.5 -81t20.5 -53t14.5 -30.5t9.5 -13.5h6q6 6 108 283q104 279 119 292q10 10 37 18.5t49.5 7.5t22.5 -11q0 -16 -80 -225q-80 -201 -135 -365q-51 -158 -60 -166q-4 -4 -21 -4t-48 4l-60 8 l-147 371q-146 361 -146 378q0 4 12 4z" />
<glyph unicode="w" horiz-adv-x="1036" d="M20 1182q0 4 26 4q17 0 46 -2l74 -4l67 -244q73 -248 84 -248q4 0 26 68q22 70 46 172q59 244 70 252q12 6 71 12l62 10l55 -219q80 -295 90 -299q8 0 45 115.5t74 261.5q35 133 43 143q8 6 105 31q20 4 12 -35q-4 -27 -23 -78q-4 -10 -27.5 -89t-50 -167t-56.5 -181 t-54.5 -158.5t-32.5 -73.5q-23 -18 -65.5 -20.5t-53.5 16.5q-10 14 -39 155q-16 82 -37.5 165t-40 137.5t-26.5 54.5q-18 0 -67.5 -186.5t-59.5 -297.5q-4 -27 -14.5 -34t-57.5 -11h-8q-12 -1 -22 -1q-35 -1 -45 15q-14 20 -41 152q0 4 -1 7t-2.5 7t-1.5 9q-31 135 -102 350 z" />
<glyph unicode="x" horiz-adv-x="716" d="M20 1237q0 11 36 11q29 0 81 -7q43 -6 61.5 -24.5t80.5 -114.5q49 -74 69.5 -99.5t30.5 -17.5q12 8 94 125l80 115h74q68 0 69 -13q0 -2 -2 -4q-2 -8 -119.5 -176t-117.5 -170q-10 -14 229 -344q18 -25 10 -29q-2 -3 -18 -3q-22 0 -72 6l-86 8l-74 110q-76 111 -84 111 q-10 0 -94 -117l-84 -117h-69q-72 2 -72 9q0 9 121 178l123 174l-47 72q-51 80 -134 186q-86 119 -86 131z" />
<glyph unicode="y" horiz-adv-x="712" d="M20 1188q9 9 45 9q12 0 27 -1l62 -4l53 -143q55 -143 94 -261q39 -116 49 -116q14 0 119 295q64 169 76 198q12 33 23.5 39t56.5 6q69 0 69 -11q0 -23 -171 -445q-177 -435 -208 -486q-29 -47 -79 -79.5t-95 -32.5q-18 0 -30.5 4t-20.5 12t-12 21.5t-4 33.5q0 31 7 36 t40 5q51 0 78.5 24.5t58.5 96.5q20 53 24.5 73.5t-3.5 43.5q-260 638 -260 679q0 2 1 3z" />
<glyph unicode="z" horiz-adv-x="675" d="M20 508v5q0 39 28 79q30 43 163 186q96 102 165.5 193.5t69.5 111.5q0 14 -198 17q-147 4 -173 8t-28 25q-6 31 2 49q3 10 59 13q33 2 113 2q53 0 127 -1l293 -4l4 -33q4 -51 -309 -436q-106 -131 -113 -150q-4 -10 15 -12q11 -2 44 -2q49 0 148 4q110 4 158 4h25 q36 -2 42 -16q8 -23 -4 -51l-10 -31q-307 -2 -616 -6z" />
<glyph unicode="{" />
<glyph unicode="|" />
<glyph unicode="}" />
<glyph unicode="~" />
<glyph unicode="&#xa2;" />
<glyph unicode="&#xa3;" />
<glyph unicode="&#xa7;" />
<glyph unicode="&#xad;" horiz-adv-x="620" d="M20 635q0 14 39 70q45 66 94.5 177t73.5 201q27 111 35 125q14 20 92 -4q14 -4 35 -96q47 -207 164 -385q57 -88 49 -94q-16 -16 -45 -6t-51 39q-29 41 -86.5 155.5t-85.5 190.5q-27 78 -36 77.5t-32 -84.5q-16 -68 -66 -191.5t-73 -160.5q-18 -29 -62.5 -28.5 t-44.5 14.5z" />
<glyph unicode="&#xbf;" />
<glyph unicode="&#xc0;" />
<glyph unicode="&#xc1;" />
<glyph unicode="&#xc2;" />
<glyph unicode="&#xc4;" />
<glyph unicode="&#xc7;" />
<glyph unicode="&#xc8;" />
<glyph unicode="&#xc9;" />
<glyph unicode="&#xca;" />
<glyph unicode="&#xcb;" />
<glyph unicode="&#xce;" />
<glyph unicode="&#xcf;" />
<glyph unicode="&#xd1;" />
<glyph unicode="&#xd3;" />
<glyph unicode="&#xd4;" />
<glyph unicode="&#xd6;" />
<glyph unicode="&#xd9;" />
<glyph unicode="&#xda;" />
<glyph unicode="&#xdb;" />
<glyph unicode="&#xdc;" />
<glyph unicode="&#xdf;" />
<glyph unicode="&#xe0;" />
<glyph unicode="&#xe1;" />
<glyph unicode="&#xe2;" />
<glyph unicode="&#xe4;" />
<glyph unicode="&#xe7;" />
<glyph unicode="&#xe8;" />
<glyph unicode="&#xe9;" />
<glyph unicode="&#xea;" />
<glyph unicode="&#xeb;" />
<glyph unicode="&#xee;" />
<glyph unicode="&#xef;" />
<glyph unicode="&#xf3;" />
<glyph unicode="&#xf4;" />
<glyph unicode="&#xf6;" />
<glyph unicode="&#xf9;" />
<glyph unicode="&#xfa;" />
<glyph unicode="&#xfb;" />
<glyph unicode="&#xfc;" />
<glyph unicode="&#x2000;" horiz-adv-x="819" />
<glyph unicode="&#x2001;" horiz-adv-x="1638" />
<glyph unicode="&#x2002;" horiz-adv-x="819" />
<glyph unicode="&#x2003;" horiz-adv-x="1638" />
<glyph unicode="&#x2004;" horiz-adv-x="546" />
<glyph unicode="&#x2005;" horiz-adv-x="409" />
<glyph unicode="&#x2006;" horiz-adv-x="273" />
<glyph unicode="&#x2007;" horiz-adv-x="273" />
<glyph unicode="&#x2008;" horiz-adv-x="204" />
<glyph unicode="&#x2009;" horiz-adv-x="327" />
<glyph unicode="&#x200a;" horiz-adv-x="91" />
<glyph unicode="&#x2010;" horiz-adv-x="620" d="M20 635q0 14 39 70q45 66 94.5 177t73.5 201q27 111 35 125q14 20 92 -4q14 -4 35 -96q47 -207 164 -385q57 -88 49 -94q-16 -16 -45 -6t-51 39q-29 41 -86.5 155.5t-85.5 190.5q-27 78 -36 77.5t-32 -84.5q-16 -68 -66 -191.5t-73 -160.5q-18 -29 -62.5 -28.5 t-44.5 14.5z" />
<glyph unicode="&#x2011;" horiz-adv-x="620" d="M20 635q0 14 39 70q45 66 94.5 177t73.5 201q27 111 35 125q14 20 92 -4q14 -4 35 -96q47 -207 164 -385q57 -88 49 -94q-16 -16 -45 -6t-51 39q-29 41 -86.5 155.5t-85.5 190.5q-27 78 -36 77.5t-32 -84.5q-16 -68 -66 -191.5t-73 -160.5q-18 -29 -62.5 -28.5 t-44.5 14.5z" />
<glyph unicode="&#x2012;" horiz-adv-x="620" d="M20 635q0 14 39 70q45 66 94.5 177t73.5 201q27 111 35 125q14 20 92 -4q14 -4 35 -96q47 -207 164 -385q57 -88 49 -94q-16 -16 -45 -6t-51 39q-29 41 -86.5 155.5t-85.5 190.5q-27 78 -36 77.5t-32 -84.5q-16 -68 -66 -191.5t-73 -160.5q-18 -29 -62.5 -28.5 t-44.5 14.5z" />
<glyph unicode="&#x2013;" horiz-adv-x="1060" d="M20 635q0 14 69 70q79 66 165.5 177t129.5 201q47 111 61 125q25 20 162 -4q24 -4 61 -96q83 -207 288 -385q100 -88 86 -94q-28 -16 -79 -6t-89 39q-51 41 -152 155.5t-150 190.5q-48 78 -64 77.5t-56 -84.5q-28 -68 -116 -191.5t-128 -160.5q-32 -29 -110 -28.5 t-78 14.5z" />
<glyph unicode="&#x2014;" horiz-adv-x="2084" d="M20 635q0 14 137 70q158 66 332 177t258 201q95 111 123 125q49 20 323 -4q50 -4 123 -96q165 -207 576 -385q201 -88 173 -94q-57 -16 -158.5 -6t-179.5 39q-102 41 -304 155.5t-300 190.5q-95 78 -126.5 77.5t-112.5 -84.5q-56 -68 -231.5 -191.5t-256.5 -160.5 q-63 -29 -219.5 -28.5t-156.5 14.5z" />
<glyph unicode="&#x2019;" />
<glyph unicode="&#x201c;" />
<glyph unicode="&#x201d;" />
<glyph unicode="&#x2022;" />
<glyph unicode="&#x202f;" horiz-adv-x="327" />
<glyph unicode="&#x205f;" horiz-adv-x="409" />
<glyph unicode="&#x20ac;" />
<glyph unicode="&#x25fc;" horiz-adv-x="1249" d="M0 0v1249h1249v-1249h-1249z" />
</font>
</defs>
</svg>
